<mxfile host="app.diagrams.net" modified="2022-12-05T13:43:20.609Z" agent="5.0 (Windows NT 10.0; Win64; x64) AppleWebKit/537.36 (KHTML, like Gecko) Chrome/108.0.0.0 Safari/537.36" etag="zGEg7P8_1Jbp3jH93Bfb" version="20.6.0" type="github">
  <diagram id="frlQJ-Npt1x2va9xqSdP" name="Pagina-1">
    <mxGraphModel dx="3977" dy="1298" grid="1" gridSize="10" guides="1" tooltips="1" connect="1" arrows="1" fold="1" page="1" pageScale="1" pageWidth="827" pageHeight="1169" math="0" shadow="0">
      <root>
        <mxCell id="0" />
        <mxCell id="1" parent="0" />
        <mxCell id="yGzMHYDaNf_yrKZ207rC-3" value="ARTICOLO_SCIENTIFICO" style="rounded=0;whiteSpace=wrap;html=1;fillColor=#182E3E;strokeColor=#FFFFFF;fontColor=#FFFFFF;" parent="1" vertex="1">
          <mxGeometry x="-237.5" y="748.69" width="160" height="80" as="geometry" />
        </mxCell>
        <mxCell id="yGzMHYDaNf_yrKZ207rC-4" value="LIBRO" style="rounded=0;whiteSpace=wrap;html=1;fillColor=#182E3E;strokeColor=#FFFFFF;fontColor=#FFFFFF;" parent="1" vertex="1">
          <mxGeometry x="1459.4" y="644.4300000000001" width="115" height="50" as="geometry" />
        </mxCell>
        <mxCell id="yGzMHYDaNf_yrKZ207rC-9" value="Autore" style="ellipse;shape=doubleEllipse;whiteSpace=wrap;html=1;fillColor=#182E3E;strokeColor=#FFFFFF;fontColor=#FFFFFF;" parent="1" vertex="1">
          <mxGeometry x="1580.49" y="517.2599999999999" width="100" height="60" as="geometry" />
        </mxCell>
        <mxCell id="yGzMHYDaNf_yrKZ207rC-10" value="" style="endArrow=none;html=1;rounded=0;labelBackgroundColor=#FCE7CD;strokeColor=#23445D;entryX=0.5;entryY=1;entryDx=0;entryDy=0;" parent="1" source="yGzMHYDaNf_yrKZ207rC-4" target="yGzMHYDaNf_yrKZ207rC-9" edge="1">
          <mxGeometry width="50" height="50" relative="1" as="geometry">
            <mxPoint x="1297.73" y="487.48" as="sourcePoint" />
            <mxPoint x="1362.73" y="577.48" as="targetPoint" />
          </mxGeometry>
        </mxCell>
        <mxCell id="yGzMHYDaNf_yrKZ207rC-11" value="Nome" style="ellipse;whiteSpace=wrap;html=1;fillColor=#182E3E;strokeColor=#FFFFFF;fontColor=#FFFFFF;" parent="1" vertex="1">
          <mxGeometry x="690.08" y="6.76" width="63.16" height="31.79" as="geometry" />
        </mxCell>
        <mxCell id="yGzMHYDaNf_yrKZ207rC-12" value="" style="endArrow=none;html=1;rounded=0;exitX=0.5;exitY=1;exitDx=0;exitDy=0;labelBackgroundColor=#FCE7CD;strokeColor=#23445D;" parent="1" source="yGzMHYDaNf_yrKZ207rC-11" target="yGzMHYDaNf_yrKZ207rC-93" edge="1">
          <mxGeometry width="50" height="50" relative="1" as="geometry">
            <mxPoint x="741.0799999999999" y="64.15999999999997" as="sourcePoint" />
            <mxPoint x="685.6427253755063" y="122.99607209926091" as="targetPoint" />
          </mxGeometry>
        </mxCell>
        <mxCell id="yGzMHYDaNf_yrKZ207rC-13" value="Cognome" style="ellipse;whiteSpace=wrap;html=1;fillColor=#182E3E;strokeColor=#FFFFFF;fontColor=#FFFFFF;" parent="1" vertex="1">
          <mxGeometry x="760.4200000000001" y="4.099999999999994" width="80" height="37.11" as="geometry" />
        </mxCell>
        <mxCell id="yGzMHYDaNf_yrKZ207rC-14" value="" style="endArrow=none;html=1;rounded=0;entryX=0;entryY=1;entryDx=0;entryDy=0;labelBackgroundColor=#FCE7CD;strokeColor=#23445D;" parent="1" source="yGzMHYDaNf_yrKZ207rC-93" target="yGzMHYDaNf_yrKZ207rC-13" edge="1">
          <mxGeometry width="50" height="50" relative="1" as="geometry">
            <mxPoint x="707.5788727102183" y="124.51114052687626" as="sourcePoint" />
            <mxPoint x="771.9100000000001" y="83" as="targetPoint" />
          </mxGeometry>
        </mxCell>
        <mxCell id="yGzMHYDaNf_yrKZ207rC-17" value="Fruizione" style="ellipse;whiteSpace=wrap;html=1;fillColor=#182E3E;strokeColor=#FFFFFF;fontColor=#FFFFFF;" parent="1" vertex="1">
          <mxGeometry x="324.7500000000001" y="285" width="90" height="55" as="geometry" />
        </mxCell>
        <mxCell id="yGzMHYDaNf_yrKZ207rC-18" value="DataPubblicazione" style="ellipse;whiteSpace=wrap;html=1;fillColor=#182E3E;strokeColor=#FFFFFF;fontColor=#FFFFFF;" parent="1" vertex="1">
          <mxGeometry x="1595.63" y="593.44" width="118.48" height="48.02" as="geometry" />
        </mxCell>
        <mxCell id="yGzMHYDaNf_yrKZ207rC-19" value="Luogo" style="ellipse;whiteSpace=wrap;html=1;fillColor=#182E3E;strokeColor=#FFFFFF;fontColor=#FFFFFF;" parent="1" vertex="1">
          <mxGeometry x="1613.15" y="876.8300000000002" width="70" height="40" as="geometry" />
        </mxCell>
        <mxCell id="yGzMHYDaNf_yrKZ207rC-20" value="COLLANA" style="shape=ext;margin=3;double=1;whiteSpace=wrap;html=1;align=center;fillStyle=auto;strokeColor=#F5F5F5;fontColor=#F5F5F5;fillColor=#182E3E;" parent="1" vertex="1">
          <mxGeometry x="1845.48" y="640.21" width="120" height="60" as="geometry" />
        </mxCell>
        <mxCell id="yGzMHYDaNf_yrKZ207rC-21" value="&lt;font color=&quot;#f5f5f5&quot;&gt;APPARTENENZA&lt;/font&gt;" style="shape=rhombus;double=1;perimeter=rhombusPerimeter;whiteSpace=wrap;html=1;align=center;fillColor=#182E3E;fillStyle=auto;strokeColor=#F5F5F5;" parent="1" vertex="1">
          <mxGeometry x="1672.74" y="630.21" width="120" height="80" as="geometry" />
        </mxCell>
        <mxCell id="yGzMHYDaNf_yrKZ207rC-22" value="" style="endArrow=none;html=1;rounded=0;entryX=0;entryY=0.5;entryDx=0;entryDy=0;exitX=1;exitY=0.5;exitDx=0;exitDy=0;labelBackgroundColor=#FCE7CD;strokeColor=#23445D;fontColor=#000000;" parent="1" source="yGzMHYDaNf_yrKZ207rC-4" target="yGzMHYDaNf_yrKZ207rC-21" edge="1">
          <mxGeometry width="50" height="50" relative="1" as="geometry">
            <mxPoint x="1409.4" y="681.21" as="sourcePoint" />
            <mxPoint x="1459.4" y="631.21" as="targetPoint" />
          </mxGeometry>
        </mxCell>
        <mxCell id="yGzMHYDaNf_yrKZ207rC-23" value="N" style="text;html=1;strokeColor=none;fillColor=none;align=center;verticalAlign=middle;whiteSpace=wrap;rounded=0;fontColor=#000000;" parent="1" vertex="1">
          <mxGeometry x="1795.48" y="670.98" width="60" height="30" as="geometry" />
        </mxCell>
        <mxCell id="yGzMHYDaNf_yrKZ207rC-24" value="N" style="text;html=1;strokeColor=none;fillColor=none;align=center;verticalAlign=middle;whiteSpace=wrap;rounded=0;fontColor=#000000;" parent="1" vertex="1">
          <mxGeometry x="1562.48" y="667.33" width="60" height="30" as="geometry" />
        </mxCell>
        <mxCell id="yGzMHYDaNf_yrKZ207rC-25" value="(2,N)" style="text;html=1;strokeColor=none;fillColor=none;align=center;verticalAlign=middle;whiteSpace=wrap;rounded=0;fontColor=#000000;" parent="1" vertex="1">
          <mxGeometry x="1795.48" y="641.46" width="60" height="30" as="geometry" />
        </mxCell>
        <mxCell id="yGzMHYDaNf_yrKZ207rC-26" value="(0,N)" style="text;html=1;strokeColor=none;fillColor=none;align=center;verticalAlign=middle;whiteSpace=wrap;rounded=0;fontColor=#000000;" parent="1" vertex="1">
          <mxGeometry x="1563.23" y="642.2099999999999" width="60" height="30" as="geometry" />
        </mxCell>
        <mxCell id="yGzMHYDaNf_yrKZ207rC-27" value="Data" style="ellipse;whiteSpace=wrap;html=1;fillColor=#182E3E;strokeColor=#FFFFFF;fontColor=#FFFFFF;" parent="1" vertex="1">
          <mxGeometry x="1440.08" y="955.8500000000001" width="70" height="40" as="geometry" />
        </mxCell>
        <mxCell id="yGzMHYDaNf_yrKZ207rC-28" value="" style="endArrow=none;html=1;rounded=0;entryX=0;entryY=0.5;entryDx=0;entryDy=0;exitX=1;exitY=0.5;exitDx=0;exitDy=0;labelBackgroundColor=#FCE7CD;strokeColor=#23445D;fontColor=#000000;" parent="1" target="yGzMHYDaNf_yrKZ207rC-19" edge="1">
          <mxGeometry width="50" height="50" relative="1" as="geometry">
            <mxPoint x="1571.74" y="895.8500000000001" as="sourcePoint" />
            <mxPoint x="1546.74" y="805.85" as="targetPoint" />
          </mxGeometry>
        </mxCell>
        <mxCell id="yGzMHYDaNf_yrKZ207rC-29" value="" style="endArrow=none;html=1;rounded=0;exitX=0.5;exitY=0;exitDx=0;exitDy=0;entryX=0.25;entryY=1;entryDx=0;entryDy=0;labelBackgroundColor=#FCE7CD;strokeColor=#23445D;" parent="1" source="yGzMHYDaNf_yrKZ207rC-27" edge="1">
          <mxGeometry width="50" height="50" relative="1" as="geometry">
            <mxPoint x="1496.74" y="855.85" as="sourcePoint" />
            <mxPoint x="1489.24" y="925.8500000000001" as="targetPoint" />
          </mxGeometry>
        </mxCell>
        <mxCell id="yGzMHYDaNf_yrKZ207rC-33" value="" style="endArrow=none;html=1;rounded=0;entryX=0.5;entryY=1;entryDx=0;entryDy=0;labelBackgroundColor=#FCE7CD;strokeColor=#23445D;fontColor=#000000;exitX=0.5;exitY=0;exitDx=0;exitDy=0;" parent="1" target="yGzMHYDaNf_yrKZ207rC-4" edge="1" source="yGzMHYDaNf_yrKZ207rC-200">
          <mxGeometry width="50" height="50" relative="1" as="geometry">
            <mxPoint x="1449.011695906433" y="741.21" as="sourcePoint" />
            <mxPoint x="1329.4" y="661.21" as="targetPoint" />
          </mxGeometry>
        </mxCell>
        <mxCell id="yGzMHYDaNf_yrKZ207rC-34" value="" style="endArrow=none;html=1;rounded=0;entryX=0.51;entryY=0.968;entryDx=0;entryDy=0;entryPerimeter=0;labelBackgroundColor=#FCE7CD;strokeColor=#23445D;fontColor=#000000;" parent="1" source="yGzMHYDaNf_yrKZ207rC-201" edge="1">
          <mxGeometry width="50" height="50" relative="1" as="geometry">
            <mxPoint x="1516.7400000000005" y="865.85" as="sourcePoint" />
            <mxPoint x="1517.4266" y="833.9379999999998" as="targetPoint" />
          </mxGeometry>
        </mxCell>
        <mxCell id="yGzMHYDaNf_yrKZ207rC-35" value="N" style="text;html=1;strokeColor=none;fillColor=none;align=center;verticalAlign=middle;whiteSpace=wrap;rounded=0;fontColor=#000000;" parent="1" vertex="1">
          <mxGeometry x="1496.75" y="845.85" width="60" height="30" as="geometry" />
        </mxCell>
        <mxCell id="yGzMHYDaNf_yrKZ207rC-36" value="1" style="text;html=1;strokeColor=none;fillColor=none;align=center;verticalAlign=middle;whiteSpace=wrap;rounded=0;fontColor=#000000;" parent="1" vertex="1">
          <mxGeometry x="1500.24" y="688.95" width="60" height="30" as="geometry" />
        </mxCell>
        <mxCell id="yGzMHYDaNf_yrKZ207rC-37" value="(0,N)" style="text;html=1;strokeColor=none;fillColor=none;align=center;verticalAlign=middle;whiteSpace=wrap;rounded=0;fontColor=#000000;" parent="1" vertex="1">
          <mxGeometry x="1478.9900000000002" y="691.57" width="43.75" height="30" as="geometry" />
        </mxCell>
        <mxCell id="yGzMHYDaNf_yrKZ207rC-38" value="(1,1)" style="text;html=1;strokeColor=none;fillColor=none;align=center;verticalAlign=middle;whiteSpace=wrap;rounded=0;fontColor=#000000;" parent="1" vertex="1">
          <mxGeometry x="1466.74" y="844.85" width="60" height="30" as="geometry" />
        </mxCell>
        <mxCell id="yGzMHYDaNf_yrKZ207rC-39" value="" style="endArrow=none;html=1;rounded=0;entryX=0;entryY=1;entryDx=0;entryDy=0;labelBackgroundColor=#FCE7CD;strokeColor=#23445D;exitX=1;exitY=0;exitDx=0;exitDy=0;" parent="1" source="yGzMHYDaNf_yrKZ207rC-4" target="yGzMHYDaNf_yrKZ207rC-18" edge="1">
          <mxGeometry width="50" height="50" relative="1" as="geometry">
            <mxPoint x="1463.4" y="641.21" as="sourcePoint" />
            <mxPoint x="1513.4" y="591.21" as="targetPoint" />
          </mxGeometry>
        </mxCell>
        <mxCell id="yGzMHYDaNf_yrKZ207rC-40" value="DataNascita" style="ellipse;whiteSpace=wrap;html=1;fillColor=#182E3E;strokeColor=#FFFFFF;fontColor=#FFFFFF;" parent="1" vertex="1">
          <mxGeometry x="1619.1100000000001" y="446.9600000000001" width="95" height="50" as="geometry" />
        </mxCell>
        <mxCell id="yGzMHYDaNf_yrKZ207rC-41" value="" style="endArrow=none;html=1;rounded=0;exitX=0.714;exitY=0.013;exitDx=0;exitDy=0;labelBackgroundColor=#FCE7CD;strokeColor=#23445D;entryX=0;entryY=0.5;entryDx=0;entryDy=0;exitPerimeter=0;" parent="1" source="yGzMHYDaNf_yrKZ207rC-93" target="yGzMHYDaNf_yrKZ207rC-94" edge="1">
          <mxGeometry width="50" height="50" relative="1" as="geometry">
            <mxPoint x="727.2653390593275" y="131.7867965644034" as="sourcePoint" />
            <mxPoint x="778.75" y="91.78999999999996" as="targetPoint" />
          </mxGeometry>
        </mxCell>
        <mxCell id="yGzMHYDaNf_yrKZ207rC-42" value="CodiceFiscale" style="ellipse;whiteSpace=wrap;html=1;fillColor=#182E3E;strokeColor=#FFFFFF;fontColor=#FFFFFF;" parent="1" vertex="1">
          <mxGeometry x="1697.74" y="550.18" width="95" height="50" as="geometry" />
        </mxCell>
        <mxCell id="yGzMHYDaNf_yrKZ207rC-43" value="" style="endArrow=none;html=1;rounded=0;labelBackgroundColor=#FCE7CD;strokeColor=#23445D;entryX=0.01;entryY=0.543;entryDx=0;entryDy=0;entryPerimeter=0;" parent="1" source="yGzMHYDaNf_yrKZ207rC-9" target="yGzMHYDaNf_yrKZ207rC-42" edge="1">
          <mxGeometry width="50" height="50" relative="1" as="geometry">
            <mxPoint x="1638.98" y="460.29999999999995" as="sourcePoint" />
            <mxPoint x="1660.23" y="501.29999999999995" as="targetPoint" />
          </mxGeometry>
        </mxCell>
        <mxCell id="yGzMHYDaNf_yrKZ207rC-44" value="" style="endArrow=none;html=1;rounded=0;entryX=0;entryY=0.5;entryDx=0;entryDy=0;labelBackgroundColor=#FCE7CD;strokeColor=#23445D;fontColor=#000000;" parent="1" source="yGzMHYDaNf_yrKZ207rC-21" target="yGzMHYDaNf_yrKZ207rC-20" edge="1">
          <mxGeometry width="50" height="50" relative="1" as="geometry">
            <mxPoint x="1589.4" y="731.21" as="sourcePoint" />
            <mxPoint x="1639.4" y="681.21" as="targetPoint" />
          </mxGeometry>
        </mxCell>
        <mxCell id="yGzMHYDaNf_yrKZ207rC-45" value="Nazionalità" style="ellipse;whiteSpace=wrap;html=1;strokeColor=#FFFFFF;fontColor=#FFFFFF;fillColor=#182E3E;" parent="1" vertex="1">
          <mxGeometry x="1690.4799999999998" y="493.87999999999994" width="95" height="50" as="geometry" />
        </mxCell>
        <mxCell id="yGzMHYDaNf_yrKZ207rC-46" value="" style="endArrow=none;html=1;rounded=0;strokeColor=#23445D;entryX=0;entryY=0.5;entryDx=0;entryDy=0;exitX=1;exitY=0;exitDx=0;exitDy=0;" parent="1" source="yGzMHYDaNf_yrKZ207rC-9" target="yGzMHYDaNf_yrKZ207rC-45" edge="1">
          <mxGeometry width="50" height="50" relative="1" as="geometry">
            <mxPoint x="1528.57" y="382.32999999999987" as="sourcePoint" />
            <mxPoint x="1578.57" y="332.3299999999999" as="targetPoint" />
          </mxGeometry>
        </mxCell>
        <mxCell id="yGzMHYDaNf_yrKZ207rC-47" value="&lt;font color=&quot;#000000&quot;&gt;Età&lt;/font&gt;" style="ellipse;whiteSpace=wrap;html=1;align=center;dashed=1;strokeColor=#000000;fontColor=#FFFFFF;fillColor=none;" parent="1" vertex="1">
          <mxGeometry x="626.96" y="6.76" width="54.29" height="34.12" as="geometry" />
        </mxCell>
        <mxCell id="yGzMHYDaNf_yrKZ207rC-48" value="" style="endArrow=none;html=1;rounded=0;strokeColor=#23445D;fontColor=#000000;exitX=1;exitY=1;exitDx=0;exitDy=0;" parent="1" source="yGzMHYDaNf_yrKZ207rC-47" target="yGzMHYDaNf_yrKZ207rC-93" edge="1">
          <mxGeometry width="50" height="50" relative="1" as="geometry">
            <mxPoint x="581.9100000000001" y="213" as="sourcePoint" />
            <mxPoint x="656.5546609406726" y="131.7867965644034" as="targetPoint" />
          </mxGeometry>
        </mxCell>
        <mxCell id="yGzMHYDaNf_yrKZ207rC-51" value="Lingua" style="ellipse;whiteSpace=wrap;html=1;fillColor=#182E3E;strokeColor=#FFFFFF;fontColor=#FFFFFF;" parent="1" vertex="1">
          <mxGeometry x="1587.74" y="734.9799999999999" width="70" height="40" as="geometry" />
        </mxCell>
        <mxCell id="yGzMHYDaNf_yrKZ207rC-52" value="Genere" style="ellipse;whiteSpace=wrap;html=1;fillColor=#182E3E;strokeColor=#FFFFFF;fontColor=#FFFFFF;" parent="1" vertex="1">
          <mxGeometry x="1486.69" y="599.18" width="56.36" height="30" as="geometry" />
        </mxCell>
        <mxCell id="yGzMHYDaNf_yrKZ207rC-54" value="ISBN" style="ellipse;whiteSpace=wrap;html=1;fillColor=#182E3E;strokeColor=#FFFFFF;fontColor=#FFFFFF;" parent="1" vertex="1">
          <mxGeometry x="1612.74" y="688.9500000000002" width="60" height="39.69" as="geometry" />
        </mxCell>
        <mxCell id="yGzMHYDaNf_yrKZ207rC-55" value="" style="endArrow=none;html=1;rounded=0;strokeColor=#23445D;fontColor=#000000;exitX=0;exitY=0.5;exitDx=0;exitDy=0;entryX=1;entryY=1;entryDx=0;entryDy=0;" parent="1" source="yGzMHYDaNf_yrKZ207rC-54" target="yGzMHYDaNf_yrKZ207rC-4" edge="1">
          <mxGeometry width="50" height="50" relative="1" as="geometry">
            <mxPoint x="1626.89" y="746.06" as="sourcePoint" />
            <mxPoint x="1588.57" y="731.3800000000001" as="targetPoint" />
          </mxGeometry>
        </mxCell>
        <mxCell id="yGzMHYDaNf_yrKZ207rC-56" value="Ora" style="ellipse;whiteSpace=wrap;html=1;fillColor=#182E3E;strokeColor=#FFFFFF;fontColor=#FFFFFF;" parent="1" vertex="1">
          <mxGeometry x="1526.74" y="955.8500000000001" width="70" height="40" as="geometry" />
        </mxCell>
        <mxCell id="yGzMHYDaNf_yrKZ207rC-57" value="" style="endArrow=none;html=1;rounded=0;exitX=0.5;exitY=0;exitDx=0;exitDy=0;entryX=0.75;entryY=1;entryDx=0;entryDy=0;labelBackgroundColor=#FCE7CD;strokeColor=#23445D;" parent="1" source="yGzMHYDaNf_yrKZ207rC-56" edge="1">
          <mxGeometry width="50" height="50" relative="1" as="geometry">
            <mxPoint x="1583.3999999999999" y="855.85" as="sourcePoint" />
            <mxPoint x="1544.24" y="925.8500000000001" as="targetPoint" />
          </mxGeometry>
        </mxCell>
        <mxCell id="yGzMHYDaNf_yrKZ207rC-58" value="RIVISTA" style="shape=ext;margin=3;double=1;whiteSpace=wrap;html=1;align=center;fillStyle=auto;strokeColor=#F5F5F5;fontColor=#F5F5F5;fillColor=#182E3E;" parent="1" vertex="1">
          <mxGeometry x="190.25" y="759.94" width="121.42" height="57.5" as="geometry" />
        </mxCell>
        <mxCell id="yGzMHYDaNf_yrKZ207rC-59" value="CONFERENZA" style="shape=ext;margin=3;whiteSpace=wrap;html=1;align=center;fillStyle=auto;strokeColor=#F5F5F5;fontColor=#F5F5F5;fillColor=#182E3E;" parent="1" vertex="1">
          <mxGeometry x="-227.5" y="985.96" width="140" height="70" as="geometry" />
        </mxCell>
        <mxCell id="yGzMHYDaNf_yrKZ207rC-60" value="Argomento" style="ellipse;whiteSpace=wrap;html=1;fillColor=#182E3E;strokeColor=#FFFFFF;fontColor=#FFFFFF;" parent="1" vertex="1">
          <mxGeometry x="147.09000000000003" y="712.27" width="80" height="35" as="geometry" />
        </mxCell>
        <mxCell id="yGzMHYDaNf_yrKZ207rC-61" value="" style="endArrow=none;html=1;rounded=0;strokeColor=#23445D;fontColor=#000000;entryX=0.5;entryY=1;entryDx=0;entryDy=0;" parent="1" source="yGzMHYDaNf_yrKZ207rC-58" target="yGzMHYDaNf_yrKZ207rC-60" edge="1">
          <mxGeometry width="50" height="50" relative="1" as="geometry">
            <mxPoint x="271.25" y="835.96" as="sourcePoint" />
            <mxPoint x="376.25" y="910.96" as="targetPoint" />
          </mxGeometry>
        </mxCell>
        <mxCell id="yGzMHYDaNf_yrKZ207rC-62" value="Nome" style="ellipse;whiteSpace=wrap;html=1;fillColor=#182E3E;strokeColor=#FFFFFF;fontColor=#FFFFFF;" parent="1" vertex="1">
          <mxGeometry x="150.07999999999993" y="954.0600000000001" width="61.26" height="41.25" as="geometry" />
        </mxCell>
        <mxCell id="yGzMHYDaNf_yrKZ207rC-63" value="Cognome" style="ellipse;whiteSpace=wrap;html=1;fillColor=#182E3E;strokeColor=#FFFFFF;fontColor=#FFFFFF;" parent="1" vertex="1">
          <mxGeometry x="17.069999999999936" y="874.0900000000001" width="80" height="40" as="geometry" />
        </mxCell>
        <mxCell id="yGzMHYDaNf_yrKZ207rC-64" value="DataNascita" style="ellipse;whiteSpace=wrap;html=1;fillColor=#182E3E;strokeColor=#FFFFFF;fontColor=#FFFFFF;" parent="1" vertex="1">
          <mxGeometry x="55.07999999999993" y="932.69" width="95" height="50" as="geometry" />
        </mxCell>
        <mxCell id="yGzMHYDaNf_yrKZ207rC-65" value="" style="endArrow=none;html=1;rounded=0;labelBackgroundColor=#FCE7CD;strokeColor=#23445D;" parent="1" source="yGzMHYDaNf_yrKZ207rC-71" target="yGzMHYDaNf_yrKZ207rC-64" edge="1">
          <mxGeometry width="50" height="50" relative="1" as="geometry">
            <mxPoint x="174.3153390593211" y="817.1367965644074" as="sourcePoint" />
            <mxPoint x="55.299999999999955" y="828.3500000000001" as="targetPoint" />
          </mxGeometry>
        </mxCell>
        <mxCell id="yGzMHYDaNf_yrKZ207rC-66" value="CodiceFiscale" style="ellipse;whiteSpace=wrap;html=1;fillColor=#182E3E;strokeColor=#FFFFFF;fontColor=#FFFFFF;" parent="1" vertex="1">
          <mxGeometry x="217.40999999999985" y="927.2300000000002" width="95" height="50" as="geometry" />
        </mxCell>
        <mxCell id="yGzMHYDaNf_yrKZ207rC-67" value="Nazionalità" style="ellipse;whiteSpace=wrap;html=1;strokeColor=#FFFFFF;fontColor=#FFFFFF;fillColor=#182E3E;" parent="1" vertex="1">
          <mxGeometry x="241.25" y="869.0900000000001" width="95" height="50" as="geometry" />
        </mxCell>
        <mxCell id="yGzMHYDaNf_yrKZ207rC-68" value="" style="endArrow=none;html=1;rounded=0;strokeColor=#23445D;entryX=0;entryY=0.5;entryDx=0;entryDy=0;exitX=1;exitY=0.5;exitDx=0;exitDy=0;" parent="1" source="yGzMHYDaNf_yrKZ207rC-71" target="yGzMHYDaNf_yrKZ207rC-67" edge="1">
          <mxGeometry width="50" height="50" relative="1" as="geometry">
            <mxPoint x="188.9599999999955" y="838.3500000000004" as="sourcePoint" />
            <mxPoint x="128.9599999999998" y="788.3500000000001" as="targetPoint" />
          </mxGeometry>
        </mxCell>
        <mxCell id="yGzMHYDaNf_yrKZ207rC-69" value="&lt;font color=&quot;#000000&quot;&gt;Età&lt;/font&gt;" style="ellipse;whiteSpace=wrap;html=1;align=center;dashed=1;strokeColor=#000000;fontColor=#FFFFFF;fillColor=none;" parent="1" vertex="1">
          <mxGeometry x="70.21999999999991" y="825.96" width="53.83" height="30" as="geometry" />
        </mxCell>
        <mxCell id="yGzMHYDaNf_yrKZ207rC-70" value="" style="endArrow=none;html=1;rounded=0;strokeColor=#23445D;fontColor=#000000;exitX=0.5;exitY=1;exitDx=0;exitDy=0;entryX=0;entryY=0;entryDx=0;entryDy=0;" parent="1" source="yGzMHYDaNf_yrKZ207rC-69" target="yGzMHYDaNf_yrKZ207rC-71" edge="1">
          <mxGeometry width="50" height="50" relative="1" as="geometry">
            <mxPoint x="205.29999999999995" y="818.3500000000001" as="sourcePoint" />
            <mxPoint x="103.90300240931197" y="816.9592896056827" as="targetPoint" />
          </mxGeometry>
        </mxCell>
        <mxCell id="yGzMHYDaNf_yrKZ207rC-71" value="Responsabile" style="ellipse;whiteSpace=wrap;html=1;fillColor=#182E3E;strokeColor=#FFFFFF;fontColor=#FFFFFF;" parent="1" vertex="1">
          <mxGeometry x="111.32999999999993" y="867.21" width="105.58" height="53.75" as="geometry" />
        </mxCell>
        <mxCell id="yGzMHYDaNf_yrKZ207rC-72" value="" style="endArrow=none;html=1;rounded=0;strokeColor=#23445D;fontColor=#000000;exitX=0;exitY=0;exitDx=0;exitDy=0;" parent="1" source="yGzMHYDaNf_yrKZ207rC-66" target="yGzMHYDaNf_yrKZ207rC-71" edge="1">
          <mxGeometry width="50" height="50" relative="1" as="geometry">
            <mxPoint x="310.29999999999995" y="935.8500000000001" as="sourcePoint" />
            <mxPoint x="362.0500000000004" y="925.6200000000001" as="targetPoint" />
          </mxGeometry>
        </mxCell>
        <mxCell id="yGzMHYDaNf_yrKZ207rC-73" value="Luogo" style="ellipse;whiteSpace=wrap;html=1;fillColor=#182E3E;strokeColor=#FFFFFF;fontColor=#FFFFFF;" parent="1" vertex="1">
          <mxGeometry x="-337.91999999999996" y="1055.96" width="70" height="40" as="geometry" />
        </mxCell>
        <mxCell id="yGzMHYDaNf_yrKZ207rC-74" value="" style="endArrow=none;html=1;rounded=0;strokeColor=#23445D;fontColor=#000000;entryX=0;entryY=0.5;entryDx=0;entryDy=0;exitX=1;exitY=0;exitDx=0;exitDy=0;" parent="1" target="yGzMHYDaNf_yrKZ207rC-59" edge="1" source="yGzMHYDaNf_yrKZ207rC-73">
          <mxGeometry width="50" height="50" relative="1" as="geometry">
            <mxPoint x="-298.75" y="1055.96" as="sourcePoint" />
            <mxPoint y="1019.69" as="targetPoint" />
          </mxGeometry>
        </mxCell>
        <mxCell id="yGzMHYDaNf_yrKZ207rC-75" value="DataInizio" style="ellipse;whiteSpace=wrap;html=1;fillColor=#182E3E;strokeColor=#FFFFFF;fontColor=#FFFFFF;" parent="1" vertex="1">
          <mxGeometry x="-205" y="1095.96" width="95" height="50" as="geometry" />
        </mxCell>
        <mxCell id="yGzMHYDaNf_yrKZ207rC-76" value="" style="endArrow=none;html=1;rounded=0;strokeColor=#23445D;fontColor=#000000;exitX=0.5;exitY=0;exitDx=0;exitDy=0;entryX=0.5;entryY=1;entryDx=0;entryDy=0;" parent="1" source="yGzMHYDaNf_yrKZ207rC-75" target="yGzMHYDaNf_yrKZ207rC-59" edge="1">
          <mxGeometry width="50" height="50" relative="1" as="geometry">
            <mxPoint x="-50" y="1069.69" as="sourcePoint" />
            <mxPoint y="1019.69" as="targetPoint" />
          </mxGeometry>
        </mxCell>
        <mxCell id="yGzMHYDaNf_yrKZ207rC-77" value="DataFine" style="ellipse;whiteSpace=wrap;html=1;fillColor=#182E3E;strokeColor=#FFFFFF;fontColor=#FFFFFF;" parent="1" vertex="1">
          <mxGeometry x="-81.32999999999993" y="1094.69" width="95" height="50" as="geometry" />
        </mxCell>
        <mxCell id="yGzMHYDaNf_yrKZ207rC-78" value="" style="endArrow=none;html=1;rounded=0;strokeColor=#23445D;fontColor=#000000;exitX=0.5;exitY=0;exitDx=0;exitDy=0;entryX=1;entryY=1;entryDx=0;entryDy=0;" parent="1" source="yGzMHYDaNf_yrKZ207rC-77" target="yGzMHYDaNf_yrKZ207rC-59" edge="1">
          <mxGeometry width="50" height="50" relative="1" as="geometry">
            <mxPoint x="-50" y="1069.69" as="sourcePoint" />
            <mxPoint y="1019.69" as="targetPoint" />
          </mxGeometry>
        </mxCell>
        <mxCell id="yGzMHYDaNf_yrKZ207rC-79" value="LuogoConferenza" style="ellipse;whiteSpace=wrap;html=1;fillColor=#182E3E;strokeColor=#FFFFFF;fontColor=#FFFFFF;" parent="1" vertex="1">
          <mxGeometry x="-460" y="1095.96" width="130" height="50" as="geometry" />
        </mxCell>
        <mxCell id="yGzMHYDaNf_yrKZ207rC-80" value="" style="endArrow=none;html=1;rounded=0;strokeColor=#23445D;fontColor=#000000;exitX=0.5;exitY=0;exitDx=0;exitDy=0;" parent="1" source="yGzMHYDaNf_yrKZ207rC-79" target="yGzMHYDaNf_yrKZ207rC-73" edge="1">
          <mxGeometry width="50" height="50" relative="1" as="geometry">
            <mxPoint x="-147.5" y="1159.69" as="sourcePoint" />
            <mxPoint x="-97.5" y="1109.69" as="targetPoint" />
          </mxGeometry>
        </mxCell>
        <mxCell id="yGzMHYDaNf_yrKZ207rC-81" value="StrutturaOrganizzatrice" style="ellipse;whiteSpace=wrap;html=1;fillColor=#182E3E;strokeColor=#FFFFFF;fontColor=#FFFFFF;" parent="1" vertex="1">
          <mxGeometry x="-287.5" y="1159.69" width="150" height="60" as="geometry" />
        </mxCell>
        <mxCell id="yGzMHYDaNf_yrKZ207rC-82" value="" style="endArrow=none;html=1;rounded=0;strokeColor=#23445D;fontColor=#000000;exitX=1;exitY=1;exitDx=0;exitDy=0;entryX=0.5;entryY=0;entryDx=0;entryDy=0;" parent="1" source="yGzMHYDaNf_yrKZ207rC-73" target="yGzMHYDaNf_yrKZ207rC-81" edge="1">
          <mxGeometry width="50" height="50" relative="1" as="geometry">
            <mxPoint x="-147.5" y="1159.69" as="sourcePoint" />
            <mxPoint x="-97.5" y="1109.69" as="targetPoint" />
          </mxGeometry>
        </mxCell>
        <mxCell id="yGzMHYDaNf_yrKZ207rC-83" value="Nazione" style="ellipse;whiteSpace=wrap;html=1;fillColor=#182E3E;strokeColor=#FFFFFF;fontColor=#FFFFFF;" parent="1" vertex="1">
          <mxGeometry x="-500" y="1145.96" width="70" height="40" as="geometry" />
        </mxCell>
        <mxCell id="yGzMHYDaNf_yrKZ207rC-84" value="" style="endArrow=none;html=1;rounded=0;strokeColor=#23445D;fontColor=#000000;entryX=0;entryY=1;entryDx=0;entryDy=0;exitX=0.5;exitY=0;exitDx=0;exitDy=0;" parent="1" source="yGzMHYDaNf_yrKZ207rC-83" target="yGzMHYDaNf_yrKZ207rC-79" edge="1">
          <mxGeometry width="50" height="50" relative="1" as="geometry">
            <mxPoint x="-485" y="1229.69" as="sourcePoint" />
            <mxPoint x="-435" y="1179.69" as="targetPoint" />
          </mxGeometry>
        </mxCell>
        <mxCell id="yGzMHYDaNf_yrKZ207rC-85" value="Città" style="ellipse;whiteSpace=wrap;html=1;fillColor=#182E3E;strokeColor=#FFFFFF;fontColor=#FFFFFF;" parent="1" vertex="1">
          <mxGeometry x="-430" y="1185.96" width="70" height="40" as="geometry" />
        </mxCell>
        <mxCell id="yGzMHYDaNf_yrKZ207rC-86" value="" style="endArrow=none;html=1;rounded=0;strokeColor=#23445D;fontColor=#000000;exitX=0.5;exitY=0;exitDx=0;exitDy=0;entryX=0.5;entryY=1;entryDx=0;entryDy=0;" parent="1" source="yGzMHYDaNf_yrKZ207rC-85" target="yGzMHYDaNf_yrKZ207rC-79" edge="1">
          <mxGeometry width="50" height="50" relative="1" as="geometry">
            <mxPoint x="-357.5" y="1249.69" as="sourcePoint" />
            <mxPoint x="-307.5" y="1199.69" as="targetPoint" />
          </mxGeometry>
        </mxCell>
        <mxCell id="yGzMHYDaNf_yrKZ207rC-87" value="Indirizzo" style="ellipse;whiteSpace=wrap;html=1;fillColor=#182E3E;strokeColor=#FFFFFF;fontColor=#FFFFFF;" parent="1" vertex="1">
          <mxGeometry x="-365.84000000000003" y="1145.96" width="70" height="40" as="geometry" />
        </mxCell>
        <mxCell id="yGzMHYDaNf_yrKZ207rC-88" value="" style="endArrow=none;html=1;rounded=0;strokeColor=#23445D;fontColor=#000000;exitX=0;exitY=0;exitDx=0;exitDy=0;entryX=0.726;entryY=1.017;entryDx=0;entryDy=0;entryPerimeter=0;" parent="1" source="yGzMHYDaNf_yrKZ207rC-87" target="yGzMHYDaNf_yrKZ207rC-79" edge="1">
          <mxGeometry width="50" height="50" relative="1" as="geometry">
            <mxPoint x="-332.5" y="1219.69" as="sourcePoint" />
            <mxPoint x="-282.5" y="1169.69" as="targetPoint" />
          </mxGeometry>
        </mxCell>
        <mxCell id="yGzMHYDaNf_yrKZ207rC-89" value="" style="endArrow=none;html=1;rounded=0;strokeColor=#23445D;fontColor=#000000;entryX=1;entryY=0.5;entryDx=0;entryDy=0;exitX=0;exitY=0.5;exitDx=0;exitDy=0;" parent="1" source="yGzMHYDaNf_yrKZ207rC-71" target="yGzMHYDaNf_yrKZ207rC-63" edge="1">
          <mxGeometry width="50" height="50" relative="1" as="geometry">
            <mxPoint x="55.299999999999955" y="868.3500000000001" as="sourcePoint" />
            <mxPoint x="105.29999999999995" y="818.3500000000001" as="targetPoint" />
          </mxGeometry>
        </mxCell>
        <mxCell id="yGzMHYDaNf_yrKZ207rC-90" value="" style="endArrow=none;html=1;rounded=0;strokeColor=#23445D;fontColor=#000000;exitX=0.5;exitY=0;exitDx=0;exitDy=0;" parent="1" source="yGzMHYDaNf_yrKZ207rC-62" target="yGzMHYDaNf_yrKZ207rC-71" edge="1">
          <mxGeometry width="50" height="50" relative="1" as="geometry">
            <mxPoint x="245.29999999999995" y="808.3500000000001" as="sourcePoint" />
            <mxPoint x="405.29999999999995" y="798.3500000000001" as="targetPoint" />
          </mxGeometry>
        </mxCell>
        <mxCell id="yGzMHYDaNf_yrKZ207rC-91" value="Caratteristica" style="ellipse;whiteSpace=wrap;html=1;fillColor=#182E3E;strokeColor=#FFFFFF;fontColor=#FFFFFF;" parent="1" vertex="1">
          <mxGeometry x="1720.4" y="715.3000000000001" width="110" height="50" as="geometry" />
        </mxCell>
        <mxCell id="yGzMHYDaNf_yrKZ207rC-92" value="" style="endArrow=none;html=1;rounded=0;strokeColor=#23445D;fontColor=#000000;exitX=0.5;exitY=0;exitDx=0;exitDy=0;entryX=1;entryY=1;entryDx=0;entryDy=0;" parent="1" source="yGzMHYDaNf_yrKZ207rC-91" target="yGzMHYDaNf_yrKZ207rC-21" edge="1">
          <mxGeometry width="50" height="50" relative="1" as="geometry">
            <mxPoint x="1479.4" y="711.21" as="sourcePoint" />
            <mxPoint x="1529.4" y="661.21" as="targetPoint" />
          </mxGeometry>
        </mxCell>
        <mxCell id="yGzMHYDaNf_yrKZ207rC-93" value="UTENTE" style="rounded=0;whiteSpace=wrap;html=1;fillColor=#182E3E;strokeColor=#FFFFFF;fontColor=#FFFFFF;" parent="1" vertex="1">
          <mxGeometry x="647.2" y="120" width="132.8" height="70" as="geometry" />
        </mxCell>
        <mxCell id="yGzMHYDaNf_yrKZ207rC-94" value="UserName" style="ellipse;whiteSpace=wrap;html=1;fillColor=#182E3E;strokeColor=#FFFFFF;fontColor=#FFFFFF;" parent="1" vertex="1">
          <mxGeometry x="821.2500000000001" y="33.789999999999964" width="80" height="41.79" as="geometry" />
        </mxCell>
        <mxCell id="yGzMHYDaNf_yrKZ207rC-95" value="Password" style="ellipse;whiteSpace=wrap;html=1;fillColor=#182E3E;strokeColor=#FFFFFF;fontColor=#FFFFFF;" parent="1" vertex="1">
          <mxGeometry x="549.0000000000001" y="82.67000000000004" width="80" height="41.79" as="geometry" />
        </mxCell>
        <mxCell id="yGzMHYDaNf_yrKZ207rC-96" value="" style="endArrow=none;html=1;rounded=0;strokeColor=#23445D;fontColor=#000000;exitX=0.5;exitY=0;exitDx=0;exitDy=0;" parent="1" source="yGzMHYDaNf_yrKZ207rC-9" target="yGzMHYDaNf_yrKZ207rC-40" edge="1">
          <mxGeometry width="50" height="50" relative="1" as="geometry">
            <mxPoint x="1348.57" y="332.3299999999999" as="sourcePoint" />
            <mxPoint x="1398.57" y="282.3299999999999" as="targetPoint" />
          </mxGeometry>
        </mxCell>
        <mxCell id="yGzMHYDaNf_yrKZ207rC-97" value="" style="endArrow=none;html=1;rounded=0;strokeColor=#23445D;fontColor=#000000;exitX=0.994;exitY=0.633;exitDx=0;exitDy=0;exitPerimeter=0;" parent="1" source="yGzMHYDaNf_yrKZ207rC-95" target="yGzMHYDaNf_yrKZ207rC-93" edge="1">
          <mxGeometry width="50" height="50" relative="1" as="geometry">
            <mxPoint x="728.75" y="111.21000000000004" as="sourcePoint" />
            <mxPoint x="778.75" y="61.210000000000036" as="targetPoint" />
          </mxGeometry>
        </mxCell>
        <mxCell id="yGzMHYDaNf_yrKZ207rC-98" value="DataNascita" style="ellipse;whiteSpace=wrap;html=1;fillColor=#182E3E;strokeColor=#FFFFFF;fontColor=#FFFFFF;" parent="1" vertex="1">
          <mxGeometry x="792.4999999999999" y="201.25" width="95" height="50" as="geometry" />
        </mxCell>
        <mxCell id="yGzMHYDaNf_yrKZ207rC-99" value="" style="endArrow=none;html=1;rounded=0;strokeColor=#23445D;fontColor=#000000;exitX=1;exitY=1;exitDx=0;exitDy=0;" parent="1" source="yGzMHYDaNf_yrKZ207rC-93" target="yGzMHYDaNf_yrKZ207rC-98" edge="1">
          <mxGeometry width="50" height="50" relative="1" as="geometry">
            <mxPoint x="608.75" y="210" as="sourcePoint" />
            <mxPoint x="658.75" y="160" as="targetPoint" />
          </mxGeometry>
        </mxCell>
        <mxCell id="yGzMHYDaNf_yrKZ207rC-100" value="PREFERITI_R" style="rhombus;whiteSpace=wrap;html=1;fillColor=#182E3E;strokeColor=#FFFFFF;fontColor=#FFFFFF;" parent="1" vertex="1">
          <mxGeometry x="547.2" y="564.54" width="120" height="90" as="geometry" />
        </mxCell>
        <mxCell id="yGzMHYDaNf_yrKZ207rC-102" value="Recensione" style="ellipse;whiteSpace=wrap;html=1;fillColor=#182E3E;strokeColor=#FFFFFF;fontColor=#FFFFFF;" parent="1" vertex="1">
          <mxGeometry x="467.2" y="521.21" width="80" height="41.79" as="geometry" />
        </mxCell>
        <mxCell id="yGzMHYDaNf_yrKZ207rC-103" value="" style="endArrow=none;html=1;rounded=0;strokeColor=#23445D;fontColor=#000000;entryX=0;entryY=0;entryDx=0;entryDy=0;exitX=1;exitY=1;exitDx=0;exitDy=0;" parent="1" source="yGzMHYDaNf_yrKZ207rC-102" target="yGzMHYDaNf_yrKZ207rC-100" edge="1">
          <mxGeometry width="50" height="50" relative="1" as="geometry">
            <mxPoint x="477.2" y="590.5" as="sourcePoint" />
            <mxPoint x="527.2" y="540.5" as="targetPoint" />
          </mxGeometry>
        </mxCell>
        <mxCell id="yGzMHYDaNf_yrKZ207rC-111" value="" style="endArrow=none;html=1;rounded=0;strokeColor=#23445D;fontColor=#000000;entryX=0.5;entryY=0;entryDx=0;entryDy=0;exitX=0.18;exitY=0.992;exitDx=0;exitDy=0;exitPerimeter=0;" parent="1" source="yGzMHYDaNf_yrKZ207rC-93" target="yGzMHYDaNf_yrKZ207rC-100" edge="1">
          <mxGeometry width="50" height="50" relative="1" as="geometry">
            <mxPoint x="710" y="210" as="sourcePoint" />
            <mxPoint x="706.25" y="340" as="targetPoint" />
            <Array as="points">
              <mxPoint x="670" y="480" />
              <mxPoint x="607" y="480" />
            </Array>
          </mxGeometry>
        </mxCell>
        <mxCell id="yGzMHYDaNf_yrKZ207rC-113" value="POSSESSO_R" style="rhombus;whiteSpace=wrap;html=1;fillColor=#182E3E;strokeColor=#FFFFFF;fontColor=#FFFFFF;" parent="1" vertex="1">
          <mxGeometry x="414.75" y="350" width="117.25" height="90" as="geometry" />
        </mxCell>
        <mxCell id="yGzMHYDaNf_yrKZ207rC-114" value="" style="endArrow=none;html=1;rounded=0;strokeColor=#23445D;fontColor=#000000;exitX=1;exitY=0.5;exitDx=0;exitDy=0;entryX=0.009;entryY=0.907;entryDx=0;entryDy=0;entryPerimeter=0;" parent="1" source="yGzMHYDaNf_yrKZ207rC-113" target="yGzMHYDaNf_yrKZ207rC-93" edge="1">
          <mxGeometry width="50" height="50" relative="1" as="geometry">
            <mxPoint x="686.33" y="260" as="sourcePoint" />
            <mxPoint x="657.605" y="183.73000000000002" as="targetPoint" />
            <Array as="points">
              <mxPoint x="600" y="395" />
              <mxPoint x="600" y="183" />
            </Array>
          </mxGeometry>
        </mxCell>
        <mxCell id="yGzMHYDaNf_yrKZ207rC-115" value="" style="endArrow=none;html=1;rounded=0;strokeColor=#23445D;fontColor=#000000;exitX=0;exitY=0.5;exitDx=0;exitDy=0;entryX=0.38;entryY=0.024;entryDx=0;entryDy=0;entryPerimeter=0;" parent="1" source="yGzMHYDaNf_yrKZ207rC-113" target="yGzMHYDaNf_yrKZ207rC-58" edge="1">
          <mxGeometry width="50" height="50" relative="1" as="geometry">
            <mxPoint x="756.25" y="660" as="sourcePoint" />
            <mxPoint x="806.25" y="610" as="targetPoint" />
            <Array as="points">
              <mxPoint x="236" y="395" />
              <mxPoint x="236" y="640" />
            </Array>
          </mxGeometry>
        </mxCell>
        <mxCell id="yGzMHYDaNf_yrKZ207rC-121" value="(0,N)" style="text;html=1;strokeColor=none;fillColor=none;align=center;verticalAlign=middle;whiteSpace=wrap;rounded=0;fontColor=#000000;" parent="1" vertex="1">
          <mxGeometry x="227" y="733.85" width="60" height="30" as="geometry" />
        </mxCell>
        <mxCell id="yGzMHYDaNf_yrKZ207rC-123" value="N" style="text;html=1;strokeColor=none;fillColor=none;align=center;verticalAlign=middle;whiteSpace=wrap;rounded=0;fontColor=#000000;" parent="1" vertex="1">
          <mxGeometry x="188.75" y="735.96" width="60" height="30" as="geometry" />
        </mxCell>
        <mxCell id="yGzMHYDaNf_yrKZ207rC-124" value="ISSN" style="ellipse;whiteSpace=wrap;html=1;fillColor=#182E3E;strokeColor=#FFFFFF;fontColor=#FFFFFF;" parent="1" vertex="1">
          <mxGeometry x="336.25" y="728.9300000000001" width="55" height="34.92" as="geometry" />
        </mxCell>
        <mxCell id="yGzMHYDaNf_yrKZ207rC-125" value="" style="endArrow=none;html=1;rounded=0;strokeColor=#23445D;fontColor=#000000;exitX=0;exitY=0.5;exitDx=0;exitDy=0;entryX=1;entryY=0.5;entryDx=0;entryDy=0;" parent="1" source="yGzMHYDaNf_yrKZ207rC-124" edge="1">
          <mxGeometry width="50" height="50" relative="1" as="geometry">
            <mxPoint x="249.92000000000007" y="703.8100000000002" as="sourcePoint" />
            <mxPoint x="311.6700000000001" y="761.3900000000001" as="targetPoint" />
          </mxGeometry>
        </mxCell>
        <mxCell id="yGzMHYDaNf_yrKZ207rC-126" value="GESTIONE" style="rhombus;whiteSpace=wrap;html=1;fillColor=#182E3E;strokeColor=#FFFFFF;fontColor=#FFFFFF;" parent="1" vertex="1">
          <mxGeometry x="470" y="116.9" width="88.75" height="76.21" as="geometry" />
        </mxCell>
        <mxCell id="yGzMHYDaNf_yrKZ207rC-127" value="LIBRERIA" style="rounded=0;whiteSpace=wrap;html=1;fillColor=#182E3E;strokeColor=#FFFFFF;fontColor=#FFFFFF;" parent="1" vertex="1">
          <mxGeometry x="260.2" y="130.00000000000003" width="110" height="50" as="geometry" />
        </mxCell>
        <mxCell id="yGzMHYDaNf_yrKZ207rC-128" value="" style="endArrow=none;html=1;rounded=0;entryX=0;entryY=0.5;entryDx=0;entryDy=0;exitX=1;exitY=0.5;exitDx=0;exitDy=0;" parent="1" source="yGzMHYDaNf_yrKZ207rC-127" target="yGzMHYDaNf_yrKZ207rC-126" edge="1">
          <mxGeometry width="50" height="50" relative="1" as="geometry">
            <mxPoint x="700.71" y="253.75" as="sourcePoint" />
            <mxPoint x="750.71" y="203.75" as="targetPoint" />
          </mxGeometry>
        </mxCell>
        <mxCell id="yGzMHYDaNf_yrKZ207rC-130" value="(1,1)" style="text;html=1;strokeColor=none;fillColor=none;align=center;verticalAlign=middle;whiteSpace=wrap;rounded=0;" parent="1" vertex="1">
          <mxGeometry x="354" y="125.46000000000004" width="60" height="30" as="geometry" />
        </mxCell>
        <mxCell id="yGzMHYDaNf_yrKZ207rC-131" value="(1,N)" style="text;html=1;strokeColor=none;fillColor=none;align=center;verticalAlign=middle;whiteSpace=wrap;rounded=0;" parent="1" vertex="1">
          <mxGeometry x="600.7" y="125.46000000000002" width="60" height="30" as="geometry" />
        </mxCell>
        <mxCell id="yGzMHYDaNf_yrKZ207rC-132" value="N" style="text;html=1;strokeColor=none;fillColor=none;align=center;verticalAlign=middle;whiteSpace=wrap;rounded=0;fontColor=#000000;" parent="1" vertex="1">
          <mxGeometry x="352.5" y="149.96000000000004" width="60" height="30" as="geometry" />
        </mxCell>
        <mxCell id="yGzMHYDaNf_yrKZ207rC-133" value="1" style="text;html=1;strokeColor=none;fillColor=none;align=center;verticalAlign=middle;whiteSpace=wrap;rounded=0;fontColor=#000000;" parent="1" vertex="1">
          <mxGeometry x="610.33" y="152.64" width="53.67" height="22.36" as="geometry" />
        </mxCell>
        <mxCell id="yGzMHYDaNf_yrKZ207rC-134" value="Nome" style="ellipse;whiteSpace=wrap;html=1;fillColor=#182E3E;strokeColor=#FFFFFF;fontColor=#FFFFFF;" parent="1" vertex="1">
          <mxGeometry x="277.58" y="43.75" width="75.24" height="45.79" as="geometry" />
        </mxCell>
        <mxCell id="yGzMHYDaNf_yrKZ207rC-135" value="" style="endArrow=none;html=1;rounded=0;exitX=0.5;exitY=1;exitDx=0;exitDy=0;labelBackgroundColor=#FCE7CD;strokeColor=#23445D;" parent="1" source="yGzMHYDaNf_yrKZ207rC-134" target="yGzMHYDaNf_yrKZ207rC-127" edge="1">
          <mxGeometry width="50" height="50" relative="1" as="geometry">
            <mxPoint x="334.40000000000003" y="78.40999999999997" as="sourcePoint" />
            <mxPoint x="295.4099999999999" y="145.46000000000004" as="targetPoint" />
          </mxGeometry>
        </mxCell>
        <mxCell id="yGzMHYDaNf_yrKZ207rC-136" value="Indirizzo" style="ellipse;whiteSpace=wrap;html=1;fillColor=#182E3E;strokeColor=#FFFFFF;fontColor=#FFFFFF;" parent="1" vertex="1">
          <mxGeometry x="363.83" y="74.46000000000004" width="70" height="40" as="geometry" />
        </mxCell>
        <mxCell id="yGzMHYDaNf_yrKZ207rC-137" value="" style="endArrow=none;html=1;rounded=0;exitX=0.75;exitY=0;exitDx=0;exitDy=0;entryX=0;entryY=1;entryDx=0;entryDy=0;" parent="1" source="yGzMHYDaNf_yrKZ207rC-127" target="yGzMHYDaNf_yrKZ207rC-136" edge="1">
          <mxGeometry width="50" height="50" relative="1" as="geometry">
            <mxPoint x="753.83" y="255.46000000000004" as="sourcePoint" />
            <mxPoint x="803.83" y="205.46000000000004" as="targetPoint" />
          </mxGeometry>
        </mxCell>
        <mxCell id="yGzMHYDaNf_yrKZ207rC-138" value="NumeroTelefonico" style="ellipse;whiteSpace=wrap;html=1;fillColor=#182E3E;strokeColor=#FFFFFF;fontColor=#FFFFFF;" parent="1" vertex="1">
          <mxGeometry x="147.58" y="70" width="122.42" height="54.46" as="geometry" />
        </mxCell>
        <mxCell id="yGzMHYDaNf_yrKZ207rC-139" value="" style="endArrow=none;html=1;rounded=0;exitX=1;exitY=1;exitDx=0;exitDy=0;entryX=0.25;entryY=0;entryDx=0;entryDy=0;" parent="1" source="yGzMHYDaNf_yrKZ207rC-138" target="yGzMHYDaNf_yrKZ207rC-127" edge="1">
          <mxGeometry width="50" height="50" relative="1" as="geometry">
            <mxPoint x="753.83" y="255.46000000000004" as="sourcePoint" />
            <mxPoint x="803.83" y="205.46000000000004" as="targetPoint" />
          </mxGeometry>
        </mxCell>
        <mxCell id="yGzMHYDaNf_yrKZ207rC-140" value="Mail" style="ellipse;whiteSpace=wrap;html=1;fillColor=#182E3E;strokeColor=#FFFFFF;fontColor=#FFFFFF;direction=west;" parent="1" vertex="1">
          <mxGeometry x="792.4999999999999" y="78.58" width="70" height="40" as="geometry" />
        </mxCell>
        <mxCell id="yGzMHYDaNf_yrKZ207rC-142" value="SitoWeb" style="ellipse;whiteSpace=wrap;html=1;fillColor=#182E3E;strokeColor=#FFFFFF;fontColor=#FFFFFF;" parent="1" vertex="1">
          <mxGeometry x="163.83" y="175.46000000000004" width="80" height="39" as="geometry" />
        </mxCell>
        <mxCell id="yGzMHYDaNf_yrKZ207rC-143" value="" style="endArrow=none;html=1;rounded=0;exitX=0.765;exitY=0.117;exitDx=0;exitDy=0;exitPerimeter=0;entryX=0;entryY=0.5;entryDx=0;entryDy=0;" parent="1" source="yGzMHYDaNf_yrKZ207rC-142" target="yGzMHYDaNf_yrKZ207rC-127" edge="1">
          <mxGeometry width="50" height="50" relative="1" as="geometry">
            <mxPoint x="433.83" y="255.46000000000004" as="sourcePoint" />
            <mxPoint x="483.83" y="205.46000000000004" as="targetPoint" />
          </mxGeometry>
        </mxCell>
        <mxCell id="yGzMHYDaNf_yrKZ207rC-144" value="" style="endArrow=none;html=1;rounded=0;exitX=1;exitY=0.5;exitDx=0;exitDy=0;entryX=0;entryY=0;entryDx=0;entryDy=0;" parent="1" source="yGzMHYDaNf_yrKZ207rC-17" target="yGzMHYDaNf_yrKZ207rC-113" edge="1">
          <mxGeometry width="50" height="50" relative="1" as="geometry">
            <mxPoint x="724" y="447.5" as="sourcePoint" />
            <mxPoint x="774" y="397.5" as="targetPoint" />
          </mxGeometry>
        </mxCell>
        <mxCell id="yGzMHYDaNf_yrKZ207rC-145" value="Quantità" style="ellipse;whiteSpace=wrap;html=1;fillColor=#182E3E;strokeColor=#FFFFFF;fontColor=#FFFFFF;" parent="1" vertex="1">
          <mxGeometry x="336.25" y="437.5" width="90" height="49.42" as="geometry" />
        </mxCell>
        <mxCell id="yGzMHYDaNf_yrKZ207rC-146" value="" style="endArrow=none;html=1;rounded=0;exitX=1;exitY=0.5;exitDx=0;exitDy=0;entryX=0;entryY=1;entryDx=0;entryDy=0;" parent="1" source="yGzMHYDaNf_yrKZ207rC-145" target="yGzMHYDaNf_yrKZ207rC-113" edge="1">
          <mxGeometry width="50" height="50" relative="1" as="geometry">
            <mxPoint x="724" y="447.5" as="sourcePoint" />
            <mxPoint x="774" y="397.5" as="targetPoint" />
          </mxGeometry>
        </mxCell>
        <mxCell id="yGzMHYDaNf_yrKZ207rC-147" value="Nazione" style="ellipse;whiteSpace=wrap;html=1;fillColor=#182E3E;strokeColor=#FFFFFF;fontColor=#FFFFFF;" parent="1" vertex="1">
          <mxGeometry x="1667.74" y="928.75" width="70" height="40" as="geometry" />
        </mxCell>
        <mxCell id="yGzMHYDaNf_yrKZ207rC-148" value="" style="endArrow=none;html=1;rounded=0;strokeColor=#23445D;fontColor=#000000;entryX=1;entryY=1;entryDx=0;entryDy=0;exitX=0;exitY=0;exitDx=0;exitDy=0;" parent="1" source="yGzMHYDaNf_yrKZ207rC-147" target="yGzMHYDaNf_yrKZ207rC-19" edge="1">
          <mxGeometry width="50" height="50" relative="1" as="geometry">
            <mxPoint x="1650.24" y="1036.44" as="sourcePoint" />
            <mxPoint x="1686.7780592228744" y="1009.117669529664" as="targetPoint" />
          </mxGeometry>
        </mxCell>
        <mxCell id="yGzMHYDaNf_yrKZ207rC-149" value="Città" style="ellipse;whiteSpace=wrap;html=1;fillColor=#182E3E;strokeColor=#FFFFFF;fontColor=#FFFFFF;" parent="1" vertex="1">
          <mxGeometry x="1732.74" y="888.7500000000001" width="70" height="40" as="geometry" />
        </mxCell>
        <mxCell id="yGzMHYDaNf_yrKZ207rC-150" value="" style="endArrow=none;html=1;rounded=0;strokeColor=#23445D;fontColor=#000000;exitX=0;exitY=0.5;exitDx=0;exitDy=0;entryX=1;entryY=0.5;entryDx=0;entryDy=0;" parent="1" source="yGzMHYDaNf_yrKZ207rC-149" target="yGzMHYDaNf_yrKZ207rC-19" edge="1">
          <mxGeometry width="50" height="50" relative="1" as="geometry">
            <mxPoint x="1777.74" y="1056.44" as="sourcePoint" />
            <mxPoint x="1732.74" y="1016.44" as="targetPoint" />
          </mxGeometry>
        </mxCell>
        <mxCell id="yGzMHYDaNf_yrKZ207rC-151" value="Indirizzo" style="ellipse;whiteSpace=wrap;html=1;fillColor=#182E3E;strokeColor=#FFFFFF;fontColor=#FFFFFF;" parent="1" vertex="1">
          <mxGeometry x="1677.74" y="835.4800000000001" width="70" height="40" as="geometry" />
        </mxCell>
        <mxCell id="yGzMHYDaNf_yrKZ207rC-152" value="" style="endArrow=none;html=1;rounded=0;strokeColor=#23445D;fontColor=#000000;exitX=0;exitY=1;exitDx=0;exitDy=0;entryX=1;entryY=0;entryDx=0;entryDy=0;" parent="1" source="yGzMHYDaNf_yrKZ207rC-151" target="yGzMHYDaNf_yrKZ207rC-19" edge="1">
          <mxGeometry width="50" height="50" relative="1" as="geometry">
            <mxPoint x="1802.74" y="1026.44" as="sourcePoint" />
            <mxPoint x="1778.7019407771256" y="1009.117669529664" as="targetPoint" />
          </mxGeometry>
        </mxCell>
        <mxCell id="yGzMHYDaNf_yrKZ207rC-153" value="Valutazione" style="ellipse;whiteSpace=wrap;html=1;fillColor=#182E3E;strokeColor=#FFFFFF;fontColor=#FFFFFF;" parent="1" vertex="1">
          <mxGeometry x="452" y="629.53" width="80" height="41.79" as="geometry" />
        </mxCell>
        <mxCell id="yGzMHYDaNf_yrKZ207rC-154" value="" style="endArrow=none;html=1;rounded=0;exitX=1;exitY=0.5;exitDx=0;exitDy=0;entryX=0;entryY=1;entryDx=0;entryDy=0;" parent="1" source="yGzMHYDaNf_yrKZ207rC-153" target="yGzMHYDaNf_yrKZ207rC-100" edge="1">
          <mxGeometry width="50" height="50" relative="1" as="geometry">
            <mxPoint x="642.2" y="670.5" as="sourcePoint" />
            <mxPoint x="692.2" y="620.5" as="targetPoint" />
          </mxGeometry>
        </mxCell>
        <mxCell id="yGzMHYDaNf_yrKZ207rC-173" value="" style="endArrow=none;html=1;rounded=0;exitX=0;exitY=0.5;exitDx=0;exitDy=0;" parent="1" source="yGzMHYDaNf_yrKZ207rC-58" edge="1">
          <mxGeometry width="50" height="50" relative="1" as="geometry">
            <mxPoint x="191.25" y="715.96" as="sourcePoint" />
            <mxPoint x="105" y="788.46" as="targetPoint" />
          </mxGeometry>
        </mxCell>
        <mxCell id="yGzMHYDaNf_yrKZ207rC-174" value="" style="endArrow=none;html=1;rounded=0;entryX=0;entryY=0.5;entryDx=0;entryDy=0;exitX=1;exitY=0.5;exitDx=0;exitDy=0;" parent="1" source="yGzMHYDaNf_yrKZ207rC-3" edge="1">
          <mxGeometry width="50" height="50" relative="1" as="geometry">
            <mxPoint x="-78.75" y="795.96" as="sourcePoint" />
            <mxPoint x="-12.5" y="788.46" as="targetPoint" />
          </mxGeometry>
        </mxCell>
        <mxCell id="yGzMHYDaNf_yrKZ207rC-175" value="Autore" style="ellipse;shape=doubleEllipse;whiteSpace=wrap;html=1;fillColor=#182E3E;strokeColor=#FFFFFF;fontColor=#FFFFFF;" parent="1" vertex="1">
          <mxGeometry x="-207.5" y="651.19" width="100" height="60" as="geometry" />
        </mxCell>
        <mxCell id="yGzMHYDaNf_yrKZ207rC-176" value="DataNascita" style="ellipse;whiteSpace=wrap;html=1;fillColor=#182E3E;strokeColor=#FFFFFF;fontColor=#FFFFFF;" parent="1" vertex="1">
          <mxGeometry x="-310" y="590.96" width="95" height="50" as="geometry" />
        </mxCell>
        <mxCell id="yGzMHYDaNf_yrKZ207rC-177" value="CodiceFiscale" style="ellipse;whiteSpace=wrap;html=1;fillColor=#182E3E;strokeColor=#FFFFFF;fontColor=#FFFFFF;" parent="1" vertex="1">
          <mxGeometry x="-106.17000000000007" y="593.22" width="95" height="50" as="geometry" />
        </mxCell>
        <mxCell id="yGzMHYDaNf_yrKZ207rC-178" value="" style="endArrow=none;html=1;rounded=0;entryX=0;entryY=1;entryDx=0;entryDy=0;exitX=1;exitY=0;exitDx=0;exitDy=0;labelBackgroundColor=#FCE7CD;strokeColor=#23445D;" parent="1" source="yGzMHYDaNf_yrKZ207rC-175" target="yGzMHYDaNf_yrKZ207rC-177" edge="1">
          <mxGeometry width="50" height="50" relative="1" as="geometry">
            <mxPoint x="-141.17466094067254" y="587.1732034355967" as="sourcePoint" />
            <mxPoint x="-116.52999999999997" y="655.96" as="targetPoint" />
          </mxGeometry>
        </mxCell>
        <mxCell id="yGzMHYDaNf_yrKZ207rC-179" value="Nazionalità" style="ellipse;whiteSpace=wrap;html=1;strokeColor=#FFFFFF;fontColor=#FFFFFF;fillColor=#182E3E;" parent="1" vertex="1">
          <mxGeometry x="-205" y="571.54" width="95" height="50" as="geometry" />
        </mxCell>
        <mxCell id="yGzMHYDaNf_yrKZ207rC-180" value="" style="endArrow=none;html=1;rounded=0;strokeColor=#23445D;exitX=0.5;exitY=0;exitDx=0;exitDy=0;entryX=0.5;entryY=1;entryDx=0;entryDy=0;" parent="1" source="yGzMHYDaNf_yrKZ207rC-175" target="yGzMHYDaNf_yrKZ207rC-179" edge="1">
          <mxGeometry width="50" height="50" relative="1" as="geometry">
            <mxPoint x="-214.91999999999996" y="649.6300000000001" as="sourcePoint" />
            <mxPoint x="-187.42000000000007" y="585.96" as="targetPoint" />
          </mxGeometry>
        </mxCell>
        <mxCell id="yGzMHYDaNf_yrKZ207rC-186" value="" style="endArrow=none;html=1;rounded=0;exitX=0;exitY=0;exitDx=0;exitDy=0;entryX=1;entryY=1;entryDx=0;entryDy=0;" parent="1" source="yGzMHYDaNf_yrKZ207rC-175" target="yGzMHYDaNf_yrKZ207rC-176" edge="1">
          <mxGeometry width="50" height="50" relative="1" as="geometry">
            <mxPoint x="-228.75" y="535.96" as="sourcePoint" />
            <mxPoint x="-178.75" y="485.96" as="targetPoint" />
          </mxGeometry>
        </mxCell>
        <mxCell id="yGzMHYDaNf_yrKZ207rC-188" value="" style="endArrow=none;html=1;rounded=0;entryX=0.5;entryY=0;entryDx=0;entryDy=0;exitX=0.5;exitY=1;exitDx=0;exitDy=0;" parent="1" source="yGzMHYDaNf_yrKZ207rC-175" target="yGzMHYDaNf_yrKZ207rC-3" edge="1">
          <mxGeometry width="50" height="50" relative="1" as="geometry">
            <mxPoint x="-188.75" y="805.96" as="sourcePoint" />
            <mxPoint x="-138.75" y="755.96" as="targetPoint" />
          </mxGeometry>
        </mxCell>
        <mxCell id="yGzMHYDaNf_yrKZ207rC-189" value="&lt;font color=&quot;#f5f5f5&quot;&gt;PRESENTAZIONE&lt;/font&gt;" style="shape=rhombus;perimeter=rhombusPerimeter;whiteSpace=wrap;html=1;align=center;fillColor=#182E3E;fillStyle=auto;strokeColor=#F5F5F5;" parent="1" vertex="1">
          <mxGeometry x="-233.33000000000004" y="864.96" width="151.66" height="91" as="geometry" />
        </mxCell>
        <mxCell id="yGzMHYDaNf_yrKZ207rC-190" value="" style="endArrow=none;html=1;rounded=0;entryX=0.5;entryY=1;entryDx=0;entryDy=0;labelBackgroundColor=#FCE7CD;strokeColor=#23445D;fontColor=#000000;" parent="1" source="yGzMHYDaNf_yrKZ207rC-189" target="yGzMHYDaNf_yrKZ207rC-3" edge="1">
          <mxGeometry width="50" height="50" relative="1" as="geometry">
            <mxPoint x="-335.84000000000003" y="838.69" as="sourcePoint" />
            <mxPoint x="-165.84000000000003" y="828.6900000000003" as="targetPoint" />
          </mxGeometry>
        </mxCell>
        <mxCell id="yGzMHYDaNf_yrKZ207rC-191" value="" style="endArrow=none;html=1;rounded=0;entryX=0.51;entryY=0.968;entryDx=0;entryDy=0;entryPerimeter=0;labelBackgroundColor=#FCE7CD;strokeColor=#23445D;fontColor=#000000;" parent="1" source="yGzMHYDaNf_yrKZ207rC-59" target="yGzMHYDaNf_yrKZ207rC-189" edge="1">
          <mxGeometry width="50" height="50" relative="1" as="geometry">
            <mxPoint x="-165.84000000000003" y="988.69" as="sourcePoint" />
            <mxPoint x="-285.84000000000003" y="928.69" as="targetPoint" />
          </mxGeometry>
        </mxCell>
        <mxCell id="yGzMHYDaNf_yrKZ207rC-192" value="N" style="text;html=1;strokeColor=none;fillColor=none;align=center;verticalAlign=middle;whiteSpace=wrap;rounded=0;fontColor=#000000;" parent="1" vertex="1">
          <mxGeometry x="-159.29000000000008" y="958.69" width="60" height="30" as="geometry" />
        </mxCell>
        <mxCell id="yGzMHYDaNf_yrKZ207rC-193" value="N" style="text;html=1;strokeColor=none;fillColor=none;align=center;verticalAlign=middle;whiteSpace=wrap;rounded=0;fontColor=#000000;" parent="1" vertex="1">
          <mxGeometry x="-159.28999999999996" y="825.96" width="60" height="30" as="geometry" />
        </mxCell>
        <mxCell id="yGzMHYDaNf_yrKZ207rC-194" value="(0,N)" style="text;html=1;strokeColor=none;fillColor=none;align=center;verticalAlign=middle;whiteSpace=wrap;rounded=0;fontColor=#000000;" parent="1" vertex="1">
          <mxGeometry x="-219.28999999999996" y="823.46" width="60" height="30" as="geometry" />
        </mxCell>
        <mxCell id="yGzMHYDaNf_yrKZ207rC-195" value="(1,N)" style="text;html=1;strokeColor=none;fillColor=none;align=center;verticalAlign=middle;whiteSpace=wrap;rounded=0;fontColor=#000000;" parent="1" vertex="1">
          <mxGeometry x="-223.5" y="957.96" width="60" height="30" as="geometry" />
        </mxCell>
        <mxCell id="yGzMHYDaNf_yrKZ207rC-196" value="(0,N)" style="text;html=1;strokeColor=none;fillColor=none;align=center;verticalAlign=middle;whiteSpace=wrap;rounded=0;fontColor=#000000;" parent="1" vertex="1">
          <mxGeometry x="-89.33000000000004" y="758.69" width="60" height="30" as="geometry" />
        </mxCell>
        <mxCell id="yGzMHYDaNf_yrKZ207rC-197" value="N" style="text;html=1;strokeColor=none;fillColor=none;align=center;verticalAlign=middle;whiteSpace=wrap;rounded=0;fontColor=#000000;" parent="1" vertex="1">
          <mxGeometry x="-88.75" y="785.81" width="60" height="30" as="geometry" />
        </mxCell>
        <mxCell id="yGzMHYDaNf_yrKZ207rC-198" value="(1,N)" style="text;html=1;strokeColor=none;fillColor=none;align=center;verticalAlign=middle;whiteSpace=wrap;rounded=0;fontColor=#000000;" parent="1" vertex="1">
          <mxGeometry x="141.25" y="758.69" width="60" height="30" as="geometry" />
        </mxCell>
        <mxCell id="yGzMHYDaNf_yrKZ207rC-199" value="N" style="text;html=1;strokeColor=none;fillColor=none;align=center;verticalAlign=middle;whiteSpace=wrap;rounded=0;fontColor=#000000;" parent="1" vertex="1">
          <mxGeometry x="147.08999999999992" y="784.69" width="60" height="30" as="geometry" />
        </mxCell>
        <mxCell id="yGzMHYDaNf_yrKZ207rC-200" value="&lt;font color=&quot;#f5f5f5&quot;&gt;PARTECIPAZIONE&lt;/font&gt;" style="shape=rhombus;double=1;perimeter=rhombusPerimeter;whiteSpace=wrap;html=1;align=center;fillColor=#182E3E;fillStyle=auto;strokeColor=#F5F5F5;" parent="1" vertex="1">
          <mxGeometry x="1430.23" y="740.21" width="173.34" height="93.73" as="geometry" />
        </mxCell>
        <mxCell id="yGzMHYDaNf_yrKZ207rC-201" value="PRESENTAZIONE" style="shape=ext;margin=3;double=1;whiteSpace=wrap;html=1;align=center;fillStyle=auto;strokeColor=#F5F5F5;fontColor=#F5F5F5;fillColor=#182E3E;" parent="1" vertex="1">
          <mxGeometry x="1452.99" y="870.12" width="127.5" height="66.27" as="geometry" />
        </mxCell>
        <mxCell id="yGzMHYDaNf_yrKZ207rC-202" value="&lt;font color=&quot;#f5f5f5&quot;&gt;COMPOSIZIONE&lt;/font&gt;" style="shape=rhombus;double=1;perimeter=rhombusPerimeter;whiteSpace=wrap;html=1;align=center;fillColor=#182E3E;fillStyle=auto;strokeColor=#F5F5F5;" parent="1" vertex="1">
          <mxGeometry x="-29.120000000000005" y="745.96" width="152.42" height="82" as="geometry" />
        </mxCell>
        <mxCell id="yGzMHYDaNf_yrKZ207rC-203" value="SERIE" style="shape=ext;margin=3;double=1;whiteSpace=wrap;html=1;align=center;fillStyle=auto;strokeColor=#F5F5F5;fontColor=#F5F5F5;fillColor=#182E3E;" parent="1" vertex="1">
          <mxGeometry x="951.5899999999999" y="968.1" width="118.33" height="59.92" as="geometry" />
        </mxCell>
        <mxCell id="yGzMHYDaNf_yrKZ207rC-204" value="&lt;font color=&quot;#f5f5f5&quot;&gt;INSERIMENTO&lt;/font&gt;" style="shape=rhombus;double=1;perimeter=rhombusPerimeter;whiteSpace=wrap;html=1;align=center;fillColor=#182E3E;fillStyle=auto;strokeColor=#F5F5F5;" parent="1" vertex="1">
          <mxGeometry x="1200" y="868.1299999999999" width="120" height="80" as="geometry" />
        </mxCell>
        <mxCell id="yGzMHYDaNf_yrKZ207rC-205" value="" style="endArrow=none;html=1;rounded=0;entryX=0.5;entryY=0;entryDx=0;entryDy=0;exitX=0.006;exitY=0.853;exitDx=0;exitDy=0;exitPerimeter=0;" parent="1" source="yGzMHYDaNf_yrKZ207rC-4" target="yGzMHYDaNf_yrKZ207rC-204" edge="1">
          <mxGeometry width="50" height="50" relative="1" as="geometry">
            <mxPoint x="1460" y="680" as="sourcePoint" />
            <mxPoint x="1292.0100000000002" y="673.7300000000002" as="targetPoint" />
            <Array as="points">
              <mxPoint x="1260" y="687" />
            </Array>
          </mxGeometry>
        </mxCell>
        <mxCell id="yGzMHYDaNf_yrKZ207rC-206" value="" style="endArrow=none;html=1;rounded=0;entryX=0;entryY=0;entryDx=0;entryDy=0;exitX=1;exitY=0.25;exitDx=0;exitDy=0;" parent="1" source="yGzMHYDaNf_yrKZ207rC-36" target="yGzMHYDaNf_yrKZ207rC-51" edge="1">
          <mxGeometry width="50" height="50" relative="1" as="geometry">
            <mxPoint x="1384.4" y="661.21" as="sourcePoint" />
            <mxPoint x="1434.4" y="611.21" as="targetPoint" />
          </mxGeometry>
        </mxCell>
        <mxCell id="yGzMHYDaNf_yrKZ207rC-208" value="" style="endArrow=none;html=1;rounded=0;exitX=1;exitY=0.5;exitDx=0;exitDy=0;entryX=0.5;entryY=1;entryDx=0;entryDy=0;" parent="1" source="yGzMHYDaNf_yrKZ207rC-203" target="yGzMHYDaNf_yrKZ207rC-204" edge="1">
          <mxGeometry width="50" height="50" relative="1" as="geometry">
            <mxPoint x="971.25" y="960" as="sourcePoint" />
            <mxPoint x="1021.25" y="910" as="targetPoint" />
            <Array as="points">
              <mxPoint x="1260" y="998" />
            </Array>
          </mxGeometry>
        </mxCell>
        <mxCell id="yGzMHYDaNf_yrKZ207rC-209" value="N" style="text;html=1;strokeColor=none;fillColor=none;align=center;verticalAlign=middle;whiteSpace=wrap;rounded=0;fontColor=#000000;" parent="1" vertex="1">
          <mxGeometry x="1422.6" y="644.61" width="44.86" height="11.62" as="geometry" />
        </mxCell>
        <mxCell id="yGzMHYDaNf_yrKZ207rC-210" value="1" style="text;html=1;strokeColor=none;fillColor=none;align=center;verticalAlign=middle;whiteSpace=wrap;rounded=0;fontColor=#000000;" parent="1" vertex="1">
          <mxGeometry x="1052.93" y="971.3699999999999" width="60" height="30" as="geometry" />
        </mxCell>
        <mxCell id="yGzMHYDaNf_yrKZ207rC-212" value="Ordine" style="ellipse;whiteSpace=wrap;html=1;fillColor=#182E3E;strokeColor=#FFFFFF;fontColor=#FFFFFF;" parent="1" vertex="1">
          <mxGeometry x="1160" y="948.83" width="56.5" height="34.65" as="geometry" />
        </mxCell>
        <mxCell id="yGzMHYDaNf_yrKZ207rC-213" value="" style="endArrow=none;html=1;rounded=0;entryX=0;entryY=1;entryDx=0;entryDy=0;exitX=0.5;exitY=0;exitDx=0;exitDy=0;" parent="1" source="yGzMHYDaNf_yrKZ207rC-212" target="yGzMHYDaNf_yrKZ207rC-204" edge="1">
          <mxGeometry width="50" height="50" relative="1" as="geometry">
            <mxPoint x="821.25" y="890" as="sourcePoint" />
            <mxPoint x="871.25" y="840" as="targetPoint" />
          </mxGeometry>
        </mxCell>
        <mxCell id="yGzMHYDaNf_yrKZ207rC-214" value="Titolo" style="ellipse;whiteSpace=wrap;html=1;fillColor=#182E3E;strokeColor=#FFFFFF;fontColor=#FFFFFF;" parent="1" vertex="1">
          <mxGeometry x="1037.92" y="1050.37" width="56.5" height="34.65" as="geometry" />
        </mxCell>
        <mxCell id="yGzMHYDaNf_yrKZ207rC-215" value="" style="endArrow=none;html=1;rounded=0;entryX=0.75;entryY=1;entryDx=0;entryDy=0;" parent="1" source="yGzMHYDaNf_yrKZ207rC-214" target="yGzMHYDaNf_yrKZ207rC-203" edge="1">
          <mxGeometry width="50" height="50" relative="1" as="geometry">
            <mxPoint x="904.5799999999999" y="938.7199999999999" as="sourcePoint" />
            <mxPoint x="954.5799999999999" y="888.7199999999999" as="targetPoint" />
          </mxGeometry>
        </mxCell>
        <mxCell id="yGzMHYDaNf_yrKZ207rC-216" value="NLibri" style="ellipse;whiteSpace=wrap;html=1;fillColor=#182E3E;strokeColor=#FFFFFF;fontColor=#FFFFFF;" parent="1" vertex="1">
          <mxGeometry x="934.75" y="1050.37" width="56.5" height="34.65" as="geometry" />
        </mxCell>
        <mxCell id="yGzMHYDaNf_yrKZ207rC-217" value="" style="endArrow=none;html=1;rounded=0;exitX=0.5;exitY=0;exitDx=0;exitDy=0;entryX=0.25;entryY=1;entryDx=0;entryDy=0;" parent="1" source="yGzMHYDaNf_yrKZ207rC-216" target="yGzMHYDaNf_yrKZ207rC-203" edge="1">
          <mxGeometry width="50" height="50" relative="1" as="geometry">
            <mxPoint x="1011.25" y="1023.37" as="sourcePoint" />
            <mxPoint x="1061.25" y="973.37" as="targetPoint" />
          </mxGeometry>
        </mxCell>
        <mxCell id="yGzMHYDaNf_yrKZ207rC-218" value="(0,1)" style="text;html=1;strokeColor=none;fillColor=none;align=center;verticalAlign=middle;whiteSpace=wrap;rounded=0;fontColor=#000000;" parent="1" vertex="1">
          <mxGeometry x="1414.86" y="687.98" width="60" height="15.98" as="geometry" />
        </mxCell>
        <mxCell id="yGzMHYDaNf_yrKZ207rC-219" value="(2,N)" style="text;html=1;strokeColor=none;fillColor=none;align=center;verticalAlign=middle;whiteSpace=wrap;rounded=0;fontColor=#000000;" parent="1" vertex="1">
          <mxGeometry x="1052.93" y="994.6399999999999" width="60" height="30" as="geometry" />
        </mxCell>
        <mxCell id="yGzMHYDaNf_yrKZ207rC-220" value="Struttura" style="ellipse;whiteSpace=wrap;html=1;fillColor=#182E3E;strokeColor=#FFFFFF;fontColor=#FFFFFF;" parent="1" vertex="1">
          <mxGeometry x="1613.15" y="977.48" width="70" height="40" as="geometry" />
        </mxCell>
        <mxCell id="yGzMHYDaNf_yrKZ207rC-221" value="" style="endArrow=none;html=1;rounded=0;entryX=0.5;entryY=1;entryDx=0;entryDy=0;" parent="1" source="yGzMHYDaNf_yrKZ207rC-220" target="yGzMHYDaNf_yrKZ207rC-19" edge="1">
          <mxGeometry width="50" height="50" relative="1" as="geometry">
            <mxPoint x="1475.07" y="945.3900000000001" as="sourcePoint" />
            <mxPoint x="1525.07" y="895.3900000000001" as="targetPoint" />
          </mxGeometry>
        </mxCell>
        <mxCell id="yGzMHYDaNf_yrKZ207rC-222" value="AnnoPubblicazione" style="ellipse;whiteSpace=wrap;html=1;fillColor=#182E3E;strokeColor=#FFFFFF;fontColor=#FFFFFF;" parent="1" vertex="1">
          <mxGeometry x="-93.82999999999993" y="670.03" width="120" height="45.58" as="geometry" />
        </mxCell>
        <mxCell id="yGzMHYDaNf_yrKZ207rC-223" value="" style="endArrow=none;html=1;rounded=0;exitX=0.75;exitY=0;exitDx=0;exitDy=0;entryX=0;entryY=1;entryDx=0;entryDy=0;" parent="1" source="yGzMHYDaNf_yrKZ207rC-3" target="yGzMHYDaNf_yrKZ207rC-222" edge="1">
          <mxGeometry width="50" height="50" relative="1" as="geometry">
            <mxPoint x="21.25" y="695.96" as="sourcePoint" />
            <mxPoint x="71.25" y="645.96" as="targetPoint" />
          </mxGeometry>
        </mxCell>
        <mxCell id="yGzMHYDaNf_yrKZ207rC-224" value="" style="endArrow=none;html=1;rounded=0;entryX=0.25;entryY=1;entryDx=0;entryDy=0;exitX=0.5;exitY=0;exitDx=0;exitDy=0;" parent="1" source="yGzMHYDaNf_yrKZ207rC-71" edge="1">
          <mxGeometry width="50" height="50" relative="1" as="geometry">
            <mxPoint x="136.25" y="975.96" as="sourcePoint" />
            <mxPoint x="205.6049999999998" y="817.44" as="targetPoint" />
          </mxGeometry>
        </mxCell>
        <mxCell id="yGzMHYDaNf_yrKZ207rC-227" value="ISSN" style="ellipse;whiteSpace=wrap;html=1;fillColor=#182E3E;strokeColor=#FFFFFF;fontColor=#FFFFFF;" parent="1" vertex="1">
          <mxGeometry x="1877.98" y="582.56" width="55" height="34.92" as="geometry" />
        </mxCell>
        <mxCell id="yGzMHYDaNf_yrKZ207rC-228" value="" style="endArrow=none;html=1;rounded=0;strokeColor=#23445D;fontColor=#000000;exitX=0.5;exitY=1;exitDx=0;exitDy=0;" parent="1" source="yGzMHYDaNf_yrKZ207rC-227" target="yGzMHYDaNf_yrKZ207rC-20" edge="1">
          <mxGeometry width="50" height="50" relative="1" as="geometry">
            <mxPoint x="1348.1995837166514" y="902.1300000000001" as="sourcePoint" />
            <mxPoint x="1347.98" y="959.1299999999999" as="targetPoint" />
          </mxGeometry>
        </mxCell>
        <mxCell id="yGzMHYDaNf_yrKZ207rC-229" value="Nome" style="ellipse;whiteSpace=wrap;html=1;fillColor=#182E3E;strokeColor=#FFFFFF;fontColor=#FFFFFF;" parent="1" vertex="1">
          <mxGeometry x="1880.07" y="736.0600000000002" width="50.83" height="31.16" as="geometry" />
        </mxCell>
        <mxCell id="yGzMHYDaNf_yrKZ207rC-230" value="" style="endArrow=none;html=1;rounded=0;entryX=0.5;entryY=1;entryDx=0;entryDy=0;exitX=0.5;exitY=0;exitDx=0;exitDy=0;" parent="1" source="yGzMHYDaNf_yrKZ207rC-229" target="yGzMHYDaNf_yrKZ207rC-20" edge="1">
          <mxGeometry width="50" height="50" relative="1" as="geometry">
            <mxPoint x="1467.56" y="777.48" as="sourcePoint" />
            <mxPoint x="1517.56" y="727.48" as="targetPoint" />
          </mxGeometry>
        </mxCell>
        <mxCell id="0Y3_s-NsQxyj2uwiEeTM-2" value="Solo le collane che vengono pubblicate periodicamente hanno un ISSN. Invece le collane non periodiche non hanno un ISSN, ma hanno un ISBN per ogni libro che gli appartiene" style="text;html=1;strokeColor=none;fillColor=none;align=center;verticalAlign=middle;whiteSpace=wrap;rounded=0;" parent="1" vertex="1">
          <mxGeometry x="1810" y="457.85" width="220" height="86.03" as="geometry" />
        </mxCell>
        <mxCell id="0Y3_s-NsQxyj2uwiEeTM-3" value="Solo le serie che vengono pubblicate periodicamente hanno un ISSN. Invece le serie non periodiche non hanno un ISSN, ma hanno un ISBN per ogni libro che gli appartiene" style="text;html=1;strokeColor=none;fillColor=none;align=center;verticalAlign=middle;whiteSpace=wrap;rounded=0;" parent="1" vertex="1">
          <mxGeometry x="901.25" y="1124.34" width="220" height="86.03" as="geometry" />
        </mxCell>
        <mxCell id="0Y3_s-NsQxyj2uwiEeTM-4" value="ISSN" style="ellipse;whiteSpace=wrap;html=1;fillColor=#182E3E;strokeColor=#FFFFFF;fontColor=#FFFFFF;" parent="1" vertex="1">
          <mxGeometry x="983.75" y="1078.4499999999998" width="55" height="34.92" as="geometry" />
        </mxCell>
        <mxCell id="0Y3_s-NsQxyj2uwiEeTM-5" value="" style="endArrow=none;html=1;rounded=0;exitX=0.5;exitY=1;exitDx=0;exitDy=0;entryX=0.5;entryY=0;entryDx=0;entryDy=0;" parent="1" source="yGzMHYDaNf_yrKZ207rC-203" target="0Y3_s-NsQxyj2uwiEeTM-4" edge="1">
          <mxGeometry width="50" height="50" relative="1" as="geometry">
            <mxPoint x="1110" y="1223.37" as="sourcePoint" />
            <mxPoint x="1160" y="1173.37" as="targetPoint" />
          </mxGeometry>
        </mxCell>
        <mxCell id="PrsCmACceEziGPp9NvAK-1" value="Nome" style="ellipse;whiteSpace=wrap;html=1;fillColor=#182E3E;strokeColor=#FFFFFF;fontColor=#FFFFFF;" parent="1" vertex="1">
          <mxGeometry x="-330" y="645.96" width="83.16" height="46.03" as="geometry" />
        </mxCell>
        <mxCell id="PrsCmACceEziGPp9NvAK-2" value="Cognome" style="ellipse;whiteSpace=wrap;html=1;fillColor=#182E3E;strokeColor=#FFFFFF;fontColor=#FFFFFF;" parent="1" vertex="1">
          <mxGeometry x="-307.4999999999999" y="703.96" width="80" height="37.11" as="geometry" />
        </mxCell>
        <mxCell id="PrsCmACceEziGPp9NvAK-3" value="" style="endArrow=none;html=1;rounded=0;exitX=1;exitY=0.5;exitDx=0;exitDy=0;" parent="1" source="PrsCmACceEziGPp9NvAK-1" target="yGzMHYDaNf_yrKZ207rC-175" edge="1">
          <mxGeometry width="50" height="50" relative="1" as="geometry">
            <mxPoint x="10" y="575.96" as="sourcePoint" />
            <mxPoint x="60" y="525.96" as="targetPoint" />
          </mxGeometry>
        </mxCell>
        <mxCell id="PrsCmACceEziGPp9NvAK-4" value="" style="endArrow=none;html=1;rounded=0;exitX=1;exitY=0.5;exitDx=0;exitDy=0;entryX=0;entryY=1;entryDx=0;entryDy=0;" parent="1" source="PrsCmACceEziGPp9NvAK-2" target="yGzMHYDaNf_yrKZ207rC-175" edge="1">
          <mxGeometry width="50" height="50" relative="1" as="geometry">
            <mxPoint x="10" y="575.96" as="sourcePoint" />
            <mxPoint x="60" y="525.96" as="targetPoint" />
          </mxGeometry>
        </mxCell>
        <mxCell id="PrsCmACceEziGPp9NvAK-6" value="Nome" style="ellipse;whiteSpace=wrap;html=1;fillColor=#182E3E;strokeColor=#FFFFFF;fontColor=#FFFFFF;" parent="1" vertex="1">
          <mxGeometry x="1549.3999999999999" y="464.98999999999995" width="63.75" height="35" as="geometry" />
        </mxCell>
        <mxCell id="PrsCmACceEziGPp9NvAK-7" value="Cognome" style="ellipse;whiteSpace=wrap;html=1;fillColor=#182E3E;strokeColor=#FFFFFF;fontColor=#FFFFFF;" parent="1" vertex="1">
          <mxGeometry x="1490.24" y="506.77000000000015" width="80" height="37.11" as="geometry" />
        </mxCell>
        <mxCell id="PrsCmACceEziGPp9NvAK-8" value="" style="endArrow=none;html=1;rounded=0;entryX=0;entryY=0;entryDx=0;entryDy=0;exitX=0.5;exitY=1;exitDx=0;exitDy=0;" parent="1" source="PrsCmACceEziGPp9NvAK-6" target="yGzMHYDaNf_yrKZ207rC-9" edge="1">
          <mxGeometry width="50" height="50" relative="1" as="geometry">
            <mxPoint x="1330.23" y="511.29999999999995" as="sourcePoint" />
            <mxPoint x="1380.23" y="461.29999999999995" as="targetPoint" />
          </mxGeometry>
        </mxCell>
        <mxCell id="PrsCmACceEziGPp9NvAK-9" value="" style="endArrow=none;html=1;rounded=0;exitX=1;exitY=1;exitDx=0;exitDy=0;entryX=0;entryY=0.5;entryDx=0;entryDy=0;" parent="1" source="PrsCmACceEziGPp9NvAK-7" target="yGzMHYDaNf_yrKZ207rC-9" edge="1">
          <mxGeometry width="50" height="50" relative="1" as="geometry">
            <mxPoint x="1330.23" y="511.29999999999995" as="sourcePoint" />
            <mxPoint x="1541.48" y="517.48" as="targetPoint" />
          </mxGeometry>
        </mxCell>
        <mxCell id="gMtsmRi_ZyYcKjKqaF1_-3" value="" style="endArrow=none;html=1;rounded=0;exitX=1;exitY=0.5;exitDx=0;exitDy=0;entryX=0;entryY=0.5;entryDx=0;entryDy=0;" edge="1" parent="1" source="yGzMHYDaNf_yrKZ207rC-126" target="yGzMHYDaNf_yrKZ207rC-93">
          <mxGeometry width="50" height="50" relative="1" as="geometry">
            <mxPoint x="600" y="200" as="sourcePoint" />
            <mxPoint x="570" y="160" as="targetPoint" />
          </mxGeometry>
        </mxCell>
        <mxCell id="gMtsmRi_ZyYcKjKqaF1_-4" value="PartitaIVA" style="ellipse;whiteSpace=wrap;html=1;fillColor=#182E3E;strokeColor=#FFFFFF;fontColor=#FFFFFF;" vertex="1" parent="1">
          <mxGeometry x="580.52" y="40.88" width="82.78" height="41.79" as="geometry" />
        </mxCell>
        <mxCell id="gMtsmRi_ZyYcKjKqaF1_-5" value="" style="endArrow=none;html=1;rounded=0;entryX=0.353;entryY=0.027;entryDx=0;entryDy=0;entryPerimeter=0;exitX=1;exitY=1;exitDx=0;exitDy=0;" edge="1" parent="1" source="gMtsmRi_ZyYcKjKqaF1_-4" target="yGzMHYDaNf_yrKZ207rC-93">
          <mxGeometry width="50" height="50" relative="1" as="geometry">
            <mxPoint x="760" y="250" as="sourcePoint" />
            <mxPoint x="810" y="200" as="targetPoint" />
          </mxGeometry>
        </mxCell>
        <mxCell id="gMtsmRi_ZyYcKjKqaF1_-6" value="Editore" style="ellipse;whiteSpace=wrap;html=1;fillColor=#182E3E;strokeColor=#FFFFFF;fontColor=#FFFFFF;" vertex="1" parent="1">
          <mxGeometry x="241.25" y="685.96" width="58.75" height="40.19" as="geometry" />
        </mxCell>
        <mxCell id="gMtsmRi_ZyYcKjKqaF1_-7" value="" style="endArrow=none;html=1;rounded=0;exitX=0.75;exitY=0;exitDx=0;exitDy=0;entryX=0.5;entryY=1;entryDx=0;entryDy=0;labelBackgroundColor=#FCE7CD;strokeColor=#23445D;" edge="1" parent="1" source="yGzMHYDaNf_yrKZ207rC-58" target="gMtsmRi_ZyYcKjKqaF1_-6">
          <mxGeometry width="50" height="50" relative="1" as="geometry">
            <mxPoint x="426.25000000000205" y="722.9200000000001" as="sourcePoint" />
            <mxPoint x="373.75" y="665.96" as="targetPoint" />
          </mxGeometry>
        </mxCell>
        <mxCell id="gMtsmRi_ZyYcKjKqaF1_-8" value="Titolo" style="ellipse;whiteSpace=wrap;html=1;fillColor=#182E3E;strokeColor=#FFFFFF;fontColor=#FFFFFF;" vertex="1" parent="1">
          <mxGeometry x="212.73000000000002" y="843.47" width="49.04" height="30.62" as="geometry" />
        </mxCell>
        <mxCell id="gMtsmRi_ZyYcKjKqaF1_-9" value="" style="endArrow=none;html=1;rounded=0;entryX=0.5;entryY=0;entryDx=0;entryDy=0;exitX=0.5;exitY=1;exitDx=0;exitDy=0;" edge="1" parent="1" source="yGzMHYDaNf_yrKZ207rC-58" target="gMtsmRi_ZyYcKjKqaF1_-8">
          <mxGeometry width="50" height="50" relative="1" as="geometry">
            <mxPoint x="160" y="865.96" as="sourcePoint" />
            <mxPoint x="210" y="815.96" as="targetPoint" />
          </mxGeometry>
        </mxCell>
        <mxCell id="gMtsmRi_ZyYcKjKqaF1_-10" value="AnnoPubblicazione" style="ellipse;whiteSpace=wrap;html=1;fillColor=#182E3E;strokeColor=#FFFFFF;fontColor=#FFFFFF;" vertex="1" parent="1">
          <mxGeometry x="294" y="821.63" width="120" height="45.58" as="geometry" />
        </mxCell>
        <mxCell id="gMtsmRi_ZyYcKjKqaF1_-11" value="" style="endArrow=none;html=1;rounded=0;entryX=0;entryY=0;entryDx=0;entryDy=0;labelBackgroundColor=#FCE7CD;strokeColor=#23445D;exitX=0.75;exitY=1;exitDx=0;exitDy=0;" edge="1" parent="1" source="yGzMHYDaNf_yrKZ207rC-58">
          <mxGeometry width="50" height="50" relative="1" as="geometry">
            <mxPoint x="373.75" y="615.96" as="sourcePoint" />
            <mxPoint x="317.25199600460246" y="830.471731868354" as="targetPoint" />
          </mxGeometry>
        </mxCell>
        <mxCell id="gMtsmRi_ZyYcKjKqaF1_-13" value="Titolo" style="ellipse;whiteSpace=wrap;html=1;fillColor=#182E3E;strokeColor=#FFFFFF;fontColor=#FFFFFF;" vertex="1" parent="1">
          <mxGeometry x="1414.86" y="718.95" width="60" height="41.47" as="geometry" />
        </mxCell>
        <mxCell id="gMtsmRi_ZyYcKjKqaF1_-14" value="AnnoPubblicazione" style="ellipse;whiteSpace=wrap;html=1;fillColor=#182E3E;strokeColor=#FFFFFF;fontColor=#FFFFFF;direction=east;" vertex="1" parent="1">
          <mxGeometry x="1489.63" y="563.8700000000001" width="120" height="36.31" as="geometry" />
        </mxCell>
        <mxCell id="gMtsmRi_ZyYcKjKqaF1_-16" value="" style="endArrow=none;html=1;rounded=0;exitX=0.727;exitY=0.062;exitDx=0;exitDy=0;exitPerimeter=0;" edge="1" parent="1" source="gMtsmRi_ZyYcKjKqaF1_-13" target="yGzMHYDaNf_yrKZ207rC-4">
          <mxGeometry width="50" height="50" relative="1" as="geometry">
            <mxPoint x="1561.48" y="777.48" as="sourcePoint" />
            <mxPoint x="1451.48" y="707.48" as="targetPoint" />
          </mxGeometry>
        </mxCell>
        <mxCell id="gMtsmRi_ZyYcKjKqaF1_-17" value="Editore" style="ellipse;whiteSpace=wrap;html=1;fillColor=#182E3E;strokeColor=#FFFFFF;fontColor=#FFFFFF;" vertex="1" parent="1">
          <mxGeometry x="1346.2600000000002" y="609.9499999999999" width="68.6" height="31.51" as="geometry" />
        </mxCell>
        <mxCell id="gMtsmRi_ZyYcKjKqaF1_-18" value="" style="endArrow=none;html=1;rounded=0;entryX=0;entryY=0;entryDx=0;entryDy=0;" edge="1" parent="1" source="gMtsmRi_ZyYcKjKqaF1_-17" target="yGzMHYDaNf_yrKZ207rC-4">
          <mxGeometry width="50" height="50" relative="1" as="geometry">
            <mxPoint x="1561.48" y="667.48" as="sourcePoint" />
            <mxPoint x="1611.48" y="617.48" as="targetPoint" />
          </mxGeometry>
        </mxCell>
        <mxCell id="gMtsmRi_ZyYcKjKqaF1_-21" value="Fruizione" style="ellipse;whiteSpace=wrap;html=1;fillColor=#182E3E;strokeColor=#FFFFFF;fontColor=#FFFFFF;" vertex="1" parent="1">
          <mxGeometry x="621.94" y="504.53999999999996" width="90" height="55" as="geometry" />
        </mxCell>
        <mxCell id="gMtsmRi_ZyYcKjKqaF1_-22" value="POSSESSO_S" style="rhombus;whiteSpace=wrap;html=1;fillColor=#182E3E;strokeColor=#FFFFFF;fontColor=#FFFFFF;" vertex="1" parent="1">
          <mxGeometry x="675.2500000000001" y="564.54" width="117.25" height="90" as="geometry" />
        </mxCell>
        <mxCell id="gMtsmRi_ZyYcKjKqaF1_-23" value="" style="endArrow=none;html=1;rounded=0;exitX=1;exitY=1;exitDx=0;exitDy=0;entryX=0;entryY=0;entryDx=0;entryDy=0;" edge="1" source="gMtsmRi_ZyYcKjKqaF1_-21" target="gMtsmRi_ZyYcKjKqaF1_-22" parent="1">
          <mxGeometry width="50" height="50" relative="1" as="geometry">
            <mxPoint x="827.74" y="668.29" as="sourcePoint" />
            <mxPoint x="877.74" y="618.29" as="targetPoint" />
          </mxGeometry>
        </mxCell>
        <mxCell id="gMtsmRi_ZyYcKjKqaF1_-24" value="Quantità" style="ellipse;whiteSpace=wrap;html=1;fillColor=#182E3E;strokeColor=#FFFFFF;fontColor=#FFFFFF;" vertex="1" parent="1">
          <mxGeometry x="621.9399999999999" y="651.19" width="90" height="49.42" as="geometry" />
        </mxCell>
        <mxCell id="gMtsmRi_ZyYcKjKqaF1_-29" value="" style="endArrow=none;html=1;rounded=0;entryX=0.5;entryY=1;entryDx=0;entryDy=0;exitX=0.25;exitY=0;exitDx=0;exitDy=0;" edge="1" parent="1" source="yGzMHYDaNf_yrKZ207rC-203" target="gMtsmRi_ZyYcKjKqaF1_-22">
          <mxGeometry width="50" height="50" relative="1" as="geometry">
            <mxPoint x="1020" y="760" as="sourcePoint" />
            <mxPoint x="890" y="600" as="targetPoint" />
            <Array as="points">
              <mxPoint x="980" y="790" />
              <mxPoint x="734" y="790" />
            </Array>
          </mxGeometry>
        </mxCell>
        <mxCell id="gMtsmRi_ZyYcKjKqaF1_-31" value="" style="endArrow=none;html=1;rounded=0;entryX=0.71;entryY=0.015;entryDx=0;entryDy=0;exitX=0;exitY=1;exitDx=0;exitDy=0;entryPerimeter=0;" edge="1" parent="1" source="gMtsmRi_ZyYcKjKqaF1_-22" target="gMtsmRi_ZyYcKjKqaF1_-24">
          <mxGeometry width="50" height="50" relative="1" as="geometry">
            <mxPoint x="986.52" y="814.54" as="sourcePoint" />
            <mxPoint x="1036.52" y="764.54" as="targetPoint" />
          </mxGeometry>
        </mxCell>
        <mxCell id="gMtsmRi_ZyYcKjKqaF1_-32" value="(0,N)" style="text;html=1;strokeColor=none;fillColor=none;align=center;verticalAlign=middle;whiteSpace=wrap;rounded=0;fontColor=#000000;" vertex="1" parent="1">
          <mxGeometry x="975.42" y="913.48" width="44.58" height="70" as="geometry" />
        </mxCell>
        <mxCell id="gMtsmRi_ZyYcKjKqaF1_-33" value="N" style="text;html=1;strokeColor=none;fillColor=none;align=center;verticalAlign=middle;whiteSpace=wrap;rounded=0;fontColor=#000000;" vertex="1" parent="1">
          <mxGeometry x="934.7500000000001" y="913.48" width="60" height="70" as="geometry" />
        </mxCell>
        <mxCell id="gMtsmRi_ZyYcKjKqaF1_-36" value="(0,N)" style="text;html=1;strokeColor=none;fillColor=none;align=center;verticalAlign=middle;whiteSpace=wrap;rounded=0;fontColor=#000000;" vertex="1" parent="1">
          <mxGeometry x="1055.42" y="913.48" width="44.58" height="70" as="geometry" />
        </mxCell>
        <mxCell id="gMtsmRi_ZyYcKjKqaF1_-37" value="N" style="text;html=1;strokeColor=none;fillColor=none;align=center;verticalAlign=middle;whiteSpace=wrap;rounded=0;fontColor=#000000;" vertex="1" parent="1">
          <mxGeometry x="1020.17" y="930.22" width="35.25" height="36.52" as="geometry" />
        </mxCell>
        <mxCell id="gMtsmRi_ZyYcKjKqaF1_-38" value="PREFERITI_S" style="rhombus;whiteSpace=wrap;html=1;fillColor=#182E3E;strokeColor=#FFFFFF;fontColor=#FFFFFF;" vertex="1" parent="1">
          <mxGeometry x="801.25" y="564.5400000000001" width="120" height="90" as="geometry" />
        </mxCell>
        <mxCell id="gMtsmRi_ZyYcKjKqaF1_-39" value="Recensione" style="ellipse;whiteSpace=wrap;html=1;fillColor=#182E3E;strokeColor=#FFFFFF;fontColor=#FFFFFF;" vertex="1" parent="1">
          <mxGeometry x="895.42" y="511.9000000000001" width="80" height="41.79" as="geometry" />
        </mxCell>
        <mxCell id="gMtsmRi_ZyYcKjKqaF1_-40" value="" style="endArrow=none;html=1;rounded=0;strokeColor=#23445D;fontColor=#000000;entryX=1;entryY=0;entryDx=0;entryDy=0;exitX=0.5;exitY=1;exitDx=0;exitDy=0;" edge="1" source="gMtsmRi_ZyYcKjKqaF1_-39" target="gMtsmRi_ZyYcKjKqaF1_-38" parent="1">
          <mxGeometry width="50" height="50" relative="1" as="geometry">
            <mxPoint x="779.08" y="612.98" as="sourcePoint" />
            <mxPoint x="829.08" y="562.98" as="targetPoint" />
          </mxGeometry>
        </mxCell>
        <mxCell id="gMtsmRi_ZyYcKjKqaF1_-41" value="Valutazione" style="ellipse;whiteSpace=wrap;html=1;fillColor=#182E3E;strokeColor=#FFFFFF;fontColor=#FFFFFF;" vertex="1" parent="1">
          <mxGeometry x="755.66" y="519.4" width="80" height="41.79" as="geometry" />
        </mxCell>
        <mxCell id="gMtsmRi_ZyYcKjKqaF1_-42" value="" style="endArrow=none;html=1;rounded=0;entryX=0;entryY=0;entryDx=0;entryDy=0;" edge="1" source="gMtsmRi_ZyYcKjKqaF1_-41" target="gMtsmRi_ZyYcKjKqaF1_-38" parent="1">
          <mxGeometry width="50" height="50" relative="1" as="geometry">
            <mxPoint x="944.08" y="692.98" as="sourcePoint" />
            <mxPoint x="994.08" y="642.98" as="targetPoint" />
          </mxGeometry>
        </mxCell>
        <mxCell id="gMtsmRi_ZyYcKjKqaF1_-44" value="" style="endArrow=none;html=1;rounded=0;entryX=0.5;entryY=1;entryDx=0;entryDy=0;exitX=1;exitY=0.5;exitDx=0;exitDy=0;" edge="1" parent="1" source="yGzMHYDaNf_yrKZ207rC-58" target="yGzMHYDaNf_yrKZ207rC-100">
          <mxGeometry width="50" height="50" relative="1" as="geometry">
            <mxPoint x="650" y="740" as="sourcePoint" />
            <mxPoint x="700" y="690" as="targetPoint" />
            <Array as="points">
              <mxPoint x="607" y="790" />
            </Array>
          </mxGeometry>
        </mxCell>
        <mxCell id="gMtsmRi_ZyYcKjKqaF1_-47" value="N" style="text;html=1;strokeColor=none;fillColor=none;align=center;verticalAlign=middle;whiteSpace=wrap;rounded=0;fontColor=#000000;" vertex="1" parent="1">
          <mxGeometry x="292.5" y="766.97" width="60" height="30" as="geometry" />
        </mxCell>
        <mxCell id="gMtsmRi_ZyYcKjKqaF1_-48" value="(0,N)" style="text;html=1;strokeColor=none;fillColor=none;align=center;verticalAlign=middle;whiteSpace=wrap;rounded=0;fontColor=#000000;" vertex="1" parent="1">
          <mxGeometry x="300" y="788.69" width="60" height="30" as="geometry" />
        </mxCell>
        <mxCell id="gMtsmRi_ZyYcKjKqaF1_-51" value="" style="endArrow=none;html=1;rounded=0;entryX=0.62;entryY=1.01;entryDx=0;entryDy=0;entryPerimeter=0;" edge="1" parent="1" source="gMtsmRi_ZyYcKjKqaF1_-22" target="yGzMHYDaNf_yrKZ207rC-93">
          <mxGeometry width="50" height="50" relative="1" as="geometry">
            <mxPoint x="740" y="380" as="sourcePoint" />
            <mxPoint x="710" y="230" as="targetPoint" />
          </mxGeometry>
        </mxCell>
        <mxCell id="gMtsmRi_ZyYcKjKqaF1_-52" value="" style="endArrow=none;html=1;rounded=0;entryX=0.5;entryY=1;entryDx=0;entryDy=0;" edge="1" parent="1" target="gMtsmRi_ZyYcKjKqaF1_-38">
          <mxGeometry width="50" height="50" relative="1" as="geometry">
            <mxPoint x="1050" y="970" as="sourcePoint" />
            <mxPoint x="730" y="840" as="targetPoint" />
            <Array as="points">
              <mxPoint x="1050" y="720" />
              <mxPoint x="861" y="720" />
            </Array>
          </mxGeometry>
        </mxCell>
        <mxCell id="gMtsmRi_ZyYcKjKqaF1_-53" value="" style="endArrow=none;html=1;rounded=0;exitX=0.911;exitY=1.003;exitDx=0;exitDy=0;entryX=0.5;entryY=0;entryDx=0;entryDy=0;exitPerimeter=0;" edge="1" parent="1" source="yGzMHYDaNf_yrKZ207rC-93" target="gMtsmRi_ZyYcKjKqaF1_-38">
          <mxGeometry width="50" height="50" relative="1" as="geometry">
            <mxPoint x="780" y="310" as="sourcePoint" />
            <mxPoint x="830" y="260" as="targetPoint" />
            <Array as="points">
              <mxPoint x="770" y="460" />
              <mxPoint x="861" y="460" />
            </Array>
          </mxGeometry>
        </mxCell>
        <mxCell id="gMtsmRi_ZyYcKjKqaF1_-54" value="Titolo" style="ellipse;whiteSpace=wrap;html=1;fillColor=#182E3E;strokeColor=#FFFFFF;fontColor=#FFFFFF;" vertex="1" parent="1">
          <mxGeometry x="850" y="952.96" width="60" height="40" as="geometry" />
        </mxCell>
        <mxCell id="gMtsmRi_ZyYcKjKqaF1_-55" value="AnnoPubblicazione" style="ellipse;whiteSpace=wrap;html=1;fillColor=#182E3E;strokeColor=#FFFFFF;fontColor=#FFFFFF;" vertex="1" parent="1">
          <mxGeometry x="797.25" y="1013.9399999999999" width="120" height="45.58" as="geometry" />
        </mxCell>
        <mxCell id="gMtsmRi_ZyYcKjKqaF1_-56" value="" style="endArrow=none;html=1;rounded=0;entryX=0.366;entryY=1.046;entryDx=0;entryDy=0;entryPerimeter=0;exitX=1;exitY=0.5;exitDx=0;exitDy=0;" edge="1" parent="1" source="gMtsmRi_ZyYcKjKqaF1_-54" target="gMtsmRi_ZyYcKjKqaF1_-33">
          <mxGeometry width="50" height="50" relative="1" as="geometry">
            <mxPoint x="750" y="1070" as="sourcePoint" />
            <mxPoint x="800" y="1020" as="targetPoint" />
          </mxGeometry>
        </mxCell>
        <mxCell id="gMtsmRi_ZyYcKjKqaF1_-57" value="" style="endArrow=none;html=1;rounded=0;entryX=0;entryY=0.75;entryDx=0;entryDy=0;exitX=1;exitY=0;exitDx=0;exitDy=0;" edge="1" parent="1" source="gMtsmRi_ZyYcKjKqaF1_-55" target="yGzMHYDaNf_yrKZ207rC-203">
          <mxGeometry width="50" height="50" relative="1" as="geometry">
            <mxPoint x="780" y="1080" as="sourcePoint" />
            <mxPoint x="830" y="1030" as="targetPoint" />
          </mxGeometry>
        </mxCell>
        <mxCell id="gMtsmRi_ZyYcKjKqaF1_-58" value="" style="endArrow=none;html=1;rounded=0;entryX=1;entryY=0.5;entryDx=0;entryDy=0;exitX=0.889;exitY=0.005;exitDx=0;exitDy=0;exitPerimeter=0;" edge="1" parent="1" source="yGzMHYDaNf_yrKZ207rC-93" target="yGzMHYDaNf_yrKZ207rC-140">
          <mxGeometry width="50" height="50" relative="1" as="geometry">
            <mxPoint x="710" y="190" as="sourcePoint" />
            <mxPoint x="760" y="140" as="targetPoint" />
          </mxGeometry>
        </mxCell>
        <mxCell id="gMtsmRi_ZyYcKjKqaF1_-59" value="Fruizione" style="ellipse;whiteSpace=wrap;html=1;fillColor=#182E3E;strokeColor=#FFFFFF;fontColor=#FFFFFF;" vertex="1" parent="1">
          <mxGeometry x="906.19" y="296.9599999999999" width="90" height="55" as="geometry" />
        </mxCell>
        <mxCell id="gMtsmRi_ZyYcKjKqaF1_-60" value="POSSESSO_S" style="rhombus;whiteSpace=wrap;html=1;fillColor=#182E3E;strokeColor=#FFFFFF;fontColor=#FFFFFF;" vertex="1" parent="1">
          <mxGeometry x="964.2500000000001" y="356.9599999999999" width="117.25" height="90" as="geometry" />
        </mxCell>
        <mxCell id="gMtsmRi_ZyYcKjKqaF1_-61" value="" style="endArrow=none;html=1;rounded=0;exitX=1;exitY=1;exitDx=0;exitDy=0;entryX=0;entryY=0;entryDx=0;entryDy=0;" edge="1" source="gMtsmRi_ZyYcKjKqaF1_-59" target="gMtsmRi_ZyYcKjKqaF1_-60" parent="1">
          <mxGeometry width="50" height="50" relative="1" as="geometry">
            <mxPoint x="1111.99" y="460.7099999999999" as="sourcePoint" />
            <mxPoint x="1161.99" y="410.7099999999999" as="targetPoint" />
          </mxGeometry>
        </mxCell>
        <mxCell id="gMtsmRi_ZyYcKjKqaF1_-62" value="Quantità" style="ellipse;whiteSpace=wrap;html=1;fillColor=#182E3E;strokeColor=#FFFFFF;fontColor=#FFFFFF;" vertex="1" parent="1">
          <mxGeometry x="906.1899999999999" y="443.61" width="90" height="49.42" as="geometry" />
        </mxCell>
        <mxCell id="gMtsmRi_ZyYcKjKqaF1_-63" value="" style="endArrow=none;html=1;rounded=0;entryX=0.71;entryY=0.015;entryDx=0;entryDy=0;exitX=0;exitY=1;exitDx=0;exitDy=0;entryPerimeter=0;" edge="1" source="gMtsmRi_ZyYcKjKqaF1_-60" target="gMtsmRi_ZyYcKjKqaF1_-62" parent="1">
          <mxGeometry width="50" height="50" relative="1" as="geometry">
            <mxPoint x="1270.77" y="606.9599999999999" as="sourcePoint" />
            <mxPoint x="1320.77" y="556.9599999999999" as="targetPoint" />
          </mxGeometry>
        </mxCell>
        <mxCell id="gMtsmRi_ZyYcKjKqaF1_-64" value="PREFERITI_S" style="rhombus;whiteSpace=wrap;html=1;fillColor=#182E3E;strokeColor=#FFFFFF;fontColor=#FFFFFF;" vertex="1" parent="1">
          <mxGeometry x="1090" y="351.96000000000004" width="120" height="90" as="geometry" />
        </mxCell>
        <mxCell id="gMtsmRi_ZyYcKjKqaF1_-65" value="Recensione" style="ellipse;whiteSpace=wrap;html=1;fillColor=#182E3E;strokeColor=#FFFFFF;fontColor=#FFFFFF;" vertex="1" parent="1">
          <mxGeometry x="1179.67" y="304.32000000000005" width="80" height="41.79" as="geometry" />
        </mxCell>
        <mxCell id="gMtsmRi_ZyYcKjKqaF1_-66" value="" style="endArrow=none;html=1;rounded=0;strokeColor=#23445D;fontColor=#000000;entryX=1;entryY=0;entryDx=0;entryDy=0;exitX=0.5;exitY=1;exitDx=0;exitDy=0;" edge="1" source="gMtsmRi_ZyYcKjKqaF1_-65" target="gMtsmRi_ZyYcKjKqaF1_-64" parent="1">
          <mxGeometry width="50" height="50" relative="1" as="geometry">
            <mxPoint x="1063.33" y="405.4" as="sourcePoint" />
            <mxPoint x="1113.33" y="355.4" as="targetPoint" />
          </mxGeometry>
        </mxCell>
        <mxCell id="gMtsmRi_ZyYcKjKqaF1_-67" value="Valutazione" style="ellipse;whiteSpace=wrap;html=1;fillColor=#182E3E;strokeColor=#FFFFFF;fontColor=#FFFFFF;" vertex="1" parent="1">
          <mxGeometry x="1039.9099999999999" y="311.81999999999994" width="80" height="41.79" as="geometry" />
        </mxCell>
        <mxCell id="gMtsmRi_ZyYcKjKqaF1_-68" value="" style="endArrow=none;html=1;rounded=0;entryX=0;entryY=0;entryDx=0;entryDy=0;" edge="1" source="gMtsmRi_ZyYcKjKqaF1_-67" target="gMtsmRi_ZyYcKjKqaF1_-64" parent="1">
          <mxGeometry width="50" height="50" relative="1" as="geometry">
            <mxPoint x="1228.33" y="485.4" as="sourcePoint" />
            <mxPoint x="1278.33" y="435.4" as="targetPoint" />
          </mxGeometry>
        </mxCell>
        <mxCell id="gMtsmRi_ZyYcKjKqaF1_-69" value="" style="endArrow=none;html=1;rounded=0;entryX=1.004;entryY=0.626;entryDx=0;entryDy=0;entryPerimeter=0;exitX=0.5;exitY=0;exitDx=0;exitDy=0;" edge="1" parent="1" source="gMtsmRi_ZyYcKjKqaF1_-60" target="yGzMHYDaNf_yrKZ207rC-93">
          <mxGeometry width="50" height="50" relative="1" as="geometry">
            <mxPoint x="1050" y="360" as="sourcePoint" />
            <mxPoint x="850" y="160" as="targetPoint" />
            <Array as="points">
              <mxPoint x="1020" y="164" />
            </Array>
          </mxGeometry>
        </mxCell>
        <mxCell id="gMtsmRi_ZyYcKjKqaF1_-70" value="" style="endArrow=none;html=1;rounded=0;exitX=0.5;exitY=1;exitDx=0;exitDy=0;entryX=0;entryY=0.25;entryDx=0;entryDy=0;" edge="1" parent="1" source="gMtsmRi_ZyYcKjKqaF1_-60" target="yGzMHYDaNf_yrKZ207rC-4">
          <mxGeometry width="50" height="50" relative="1" as="geometry">
            <mxPoint x="1140" y="670" as="sourcePoint" />
            <mxPoint x="1190" y="620" as="targetPoint" />
            <Array as="points">
              <mxPoint x="1023" y="657" />
            </Array>
          </mxGeometry>
        </mxCell>
        <mxCell id="gMtsmRi_ZyYcKjKqaF1_-71" value="" style="endArrow=none;html=1;rounded=0;exitX=1;exitY=0.25;exitDx=0;exitDy=0;entryX=0.5;entryY=0;entryDx=0;entryDy=0;" edge="1" parent="1" source="yGzMHYDaNf_yrKZ207rC-93" target="gMtsmRi_ZyYcKjKqaF1_-64">
          <mxGeometry width="50" height="50" relative="1" as="geometry">
            <mxPoint x="1530" y="360" as="sourcePoint" />
            <mxPoint x="1580" y="310" as="targetPoint" />
            <Array as="points">
              <mxPoint x="1150" y="138" />
            </Array>
          </mxGeometry>
        </mxCell>
        <mxCell id="gMtsmRi_ZyYcKjKqaF1_-72" value="" style="endArrow=none;html=1;rounded=0;exitX=0.5;exitY=1;exitDx=0;exitDy=0;entryX=0.1;entryY=-0.004;entryDx=0;entryDy=0;entryPerimeter=0;" edge="1" parent="1" source="gMtsmRi_ZyYcKjKqaF1_-64" target="yGzMHYDaNf_yrKZ207rC-4">
          <mxGeometry width="50" height="50" relative="1" as="geometry">
            <mxPoint x="1530" y="520" as="sourcePoint" />
            <mxPoint x="1580" y="470" as="targetPoint" />
            <Array as="points">
              <mxPoint x="1150" y="480" />
              <mxPoint x="1470" y="480" />
            </Array>
          </mxGeometry>
        </mxCell>
        <mxCell id="gMtsmRi_ZyYcKjKqaF1_-73" value="" style="endArrow=none;html=1;rounded=0;entryX=0.5;entryY=1;entryDx=0;entryDy=0;exitX=0.5;exitY=0;exitDx=0;exitDy=0;" edge="1" parent="1" source="yGzMHYDaNf_yrKZ207rC-4" target="yGzMHYDaNf_yrKZ207rC-52">
          <mxGeometry width="50" height="50" relative="1" as="geometry">
            <mxPoint x="1421.63" y="576.96" as="sourcePoint" />
            <mxPoint x="1471.63" y="526.96" as="targetPoint" />
          </mxGeometry>
        </mxCell>
        <mxCell id="gMtsmRi_ZyYcKjKqaF1_-74" value="" style="endArrow=none;html=1;rounded=0;entryX=0.5;entryY=1;entryDx=0;entryDy=0;exitX=0.698;exitY=-0.004;exitDx=0;exitDy=0;exitPerimeter=0;" edge="1" parent="1" source="yGzMHYDaNf_yrKZ207rC-4" target="gMtsmRi_ZyYcKjKqaF1_-14">
          <mxGeometry width="50" height="50" relative="1" as="geometry">
            <mxPoint x="1421.63" y="576.96" as="sourcePoint" />
            <mxPoint x="1471.63" y="526.96" as="targetPoint" />
          </mxGeometry>
        </mxCell>
        <mxCell id="gMtsmRi_ZyYcKjKqaF1_-75" value="N" style="text;html=1;strokeColor=none;fillColor=none;align=center;verticalAlign=middle;whiteSpace=wrap;rounded=0;fontColor=#000000;" vertex="1" parent="1">
          <mxGeometry x="1438" y="606.7" width="48.99" height="54.3" as="geometry" />
        </mxCell>
        <mxCell id="gMtsmRi_ZyYcKjKqaF1_-76" value="(0,N)" style="text;html=1;strokeColor=none;fillColor=none;align=center;verticalAlign=middle;whiteSpace=wrap;rounded=0;fontColor=#000000;" vertex="1" parent="1">
          <mxGeometry x="1466.74" y="624.64" width="36.26" height="21.32" as="geometry" />
        </mxCell>
        <mxCell id="gMtsmRi_ZyYcKjKqaF1_-79" value="N" style="text;html=1;strokeColor=none;fillColor=none;align=center;verticalAlign=middle;whiteSpace=wrap;rounded=0;fontColor=#000000;" vertex="1" parent="1">
          <mxGeometry x="1433.08" y="676.3000000000001" width="23.83" height="9.78" as="geometry" />
        </mxCell>
        <mxCell id="gMtsmRi_ZyYcKjKqaF1_-81" value="(0,1)" style="text;html=1;strokeColor=none;fillColor=none;align=center;verticalAlign=middle;whiteSpace=wrap;rounded=0;fontColor=#000000;" vertex="1" parent="1">
          <mxGeometry x="1414.99" y="656.23" width="60" height="13.46" as="geometry" />
        </mxCell>
        <mxCell id="gMtsmRi_ZyYcKjKqaF1_-83" value="N" style="text;html=1;strokeColor=none;fillColor=none;align=center;verticalAlign=middle;whiteSpace=wrap;rounded=0;fontColor=#000000;" vertex="1" parent="1">
          <mxGeometry x="600.7" y="179.96000000000006" width="60" height="30" as="geometry" />
        </mxCell>
        <mxCell id="gMtsmRi_ZyYcKjKqaF1_-84" value="(0,N)" style="text;html=1;strokeColor=none;fillColor=none;align=center;verticalAlign=middle;whiteSpace=wrap;rounded=0;fontColor=#000000;" vertex="1" parent="1">
          <mxGeometry x="603.3000000000001" y="160.00000000000003" width="60" height="30" as="geometry" />
        </mxCell>
        <mxCell id="gMtsmRi_ZyYcKjKqaF1_-85" value="(0,N)" style="text;html=1;strokeColor=none;fillColor=none;align=center;verticalAlign=middle;whiteSpace=wrap;rounded=0;fontColor=#000000;" vertex="1" parent="1">
          <mxGeometry x="655.7" y="183.46000000000004" width="60" height="30" as="geometry" />
        </mxCell>
        <mxCell id="gMtsmRi_ZyYcKjKqaF1_-86" value="N" style="text;html=1;strokeColor=none;fillColor=none;align=center;verticalAlign=middle;whiteSpace=wrap;rounded=0;fontColor=#000000;" vertex="1" parent="1">
          <mxGeometry x="631.96" y="183.46000000000006" width="60" height="30" as="geometry" />
        </mxCell>
        <mxCell id="gMtsmRi_ZyYcKjKqaF1_-88" value="(0,N)" style="text;html=1;strokeColor=none;fillColor=none;align=center;verticalAlign=middle;whiteSpace=wrap;rounded=0;fontColor=#000000;" vertex="1" parent="1">
          <mxGeometry x="701.14" y="183.46" width="24.92" height="30" as="geometry" />
        </mxCell>
        <mxCell id="gMtsmRi_ZyYcKjKqaF1_-89" value="N" style="text;html=1;strokeColor=none;fillColor=none;align=center;verticalAlign=middle;whiteSpace=wrap;rounded=0;fontColor=#000000;" vertex="1" parent="1">
          <mxGeometry x="706.88" y="184.46000000000006" width="60" height="30" as="geometry" />
        </mxCell>
        <mxCell id="gMtsmRi_ZyYcKjKqaF1_-90" value="(0,N)" style="text;html=1;strokeColor=none;fillColor=none;align=center;verticalAlign=middle;whiteSpace=wrap;rounded=0;fontColor=#000000;" vertex="1" parent="1">
          <mxGeometry x="740" y="184.46" width="30" height="30" as="geometry" />
        </mxCell>
        <mxCell id="gMtsmRi_ZyYcKjKqaF1_-91" value="N" style="text;html=1;strokeColor=none;fillColor=none;align=center;verticalAlign=middle;whiteSpace=wrap;rounded=0;fontColor=#000000;" vertex="1" parent="1">
          <mxGeometry x="762.88" y="186" width="25.25" height="28.75" as="geometry" />
        </mxCell>
        <mxCell id="gMtsmRi_ZyYcKjKqaF1_-92" value="N" style="text;html=1;strokeColor=none;fillColor=none;align=center;verticalAlign=middle;whiteSpace=wrap;rounded=0;fontColor=#000000;" vertex="1" parent="1">
          <mxGeometry x="760.4200000000001" y="156.00000000000006" width="60" height="30" as="geometry" />
        </mxCell>
        <mxCell id="gMtsmRi_ZyYcKjKqaF1_-93" value="N" style="text;html=1;strokeColor=none;fillColor=none;align=center;verticalAlign=middle;whiteSpace=wrap;rounded=0;fontColor=#000000;" vertex="1" parent="1">
          <mxGeometry x="760.4200000000001" y="128.00000000000006" width="60" height="30" as="geometry" />
        </mxCell>
        <mxCell id="gMtsmRi_ZyYcKjKqaF1_-94" value="(0,N)" style="text;html=1;strokeColor=none;fillColor=none;align=center;verticalAlign=middle;whiteSpace=wrap;rounded=0;fontColor=#000000;" vertex="1" parent="1">
          <mxGeometry x="765.66" y="114.46" width="60" height="26.54" as="geometry" />
        </mxCell>
        <mxCell id="gMtsmRi_ZyYcKjKqaF1_-95" value="(0,N)" style="text;html=1;strokeColor=none;fillColor=none;align=center;verticalAlign=middle;whiteSpace=wrap;rounded=0;fontColor=#000000;" vertex="1" parent="1">
          <mxGeometry x="764" y="146" width="60" height="20.46" as="geometry" />
        </mxCell>
      </root>
    </mxGraphModel>
  </diagram>
</mxfile>
